<svg width="450" height="370" viewBox="0 0 450 370" fill="none" xmlns="http://www.w3.org/2000/svg">
<g filter="url(#filter0_d_1505_1504)">
<path d="M90 30C90 18.9543 98.9543 10 110 10H420C431.046 10 440 18.9543 440 30V260C440 271.046 431.046 280 420 280H110C98.9543 280 90 271.046 90 260V30Z" fill="url(#paint0_linear_1505_1504)"/>
<path d="M94 30C94 21.1634 101.163 14 110 14H420C428.837 14 436 21.1634 436 30V260C436 268.837 428.837 276 420 276H110C101.163 276 94 268.837 94 260V30Z" stroke="#F7F7F7" stroke-width="8"/>
</g>
<g opacity="0.3">
<circle cx="398" cy="89" r="2" transform="rotate(-90 398 89)" fill="#F7F7F7"/>
<circle cx="408" cy="89" r="2" transform="rotate(-90 408 89)" fill="#F7F7F7"/>
<circle cx="417" cy="89" r="2" transform="rotate(-90 417 89)" fill="#F7F7F7"/>
<circle cx="398" cy="80" r="2" transform="rotate(-90 398 80)" fill="#F7F7F7"/>
<circle cx="408" cy="80" r="2" transform="rotate(-90 408 80)" fill="#F7F7F7"/>
<circle cx="417" cy="80" r="2" transform="rotate(-90 417 80)" fill="#F7F7F7"/>
<circle cx="398" cy="70" r="2" transform="rotate(-90 398 70)" fill="#F7F7F7"/>
<circle cx="389" cy="70" r="2" transform="rotate(-90 389 70)" fill="#F7F7F7"/>
<circle cx="379" cy="70" r="2" transform="rotate(-90 379 70)" fill="#F7F7F7"/>
<circle cx="408" cy="70" r="2" transform="rotate(-90 408 70)" fill="#F7F7F7"/>
<circle cx="417" cy="70" r="2" transform="rotate(-90 417 70)" fill="#F7F7F7"/>
<circle cx="398" cy="61" r="2" transform="rotate(-90 398 61)" fill="#F7F7F7"/>
<circle cx="408" cy="61" r="2" transform="rotate(-90 408 61)" fill="#F7F7F7"/>
<circle cx="417" cy="61" r="2" transform="rotate(-90 417 61)" fill="#F7F7F7"/>
<circle cx="360" cy="51" r="2" transform="rotate(-90 360 51)" fill="#F7F7F7"/>
<circle cx="370" cy="51" r="2" transform="rotate(-90 370 51)" fill="#F7F7F7"/>
<circle cx="379" cy="51" r="2" transform="rotate(-90 379 51)" fill="#F7F7F7"/>
<circle cx="379" cy="61" r="2" transform="rotate(-90 379 61)" fill="#F7F7F7"/>
<circle cx="389" cy="51" r="2" transform="rotate(-90 389 51)" fill="#F7F7F7"/>
<circle cx="389" cy="61" r="2" transform="rotate(-90 389 61)" fill="#F7F7F7"/>
<circle cx="408" cy="51" r="2" transform="rotate(-90 408 51)" fill="#F7F7F7"/>
<circle cx="398" cy="51" r="2" transform="rotate(-90 398 51)" fill="#F7F7F7"/>
<circle cx="417" cy="51" r="2" transform="rotate(-90 417 51)" fill="#F7F7F7"/>
<circle cx="360" cy="42" r="2" transform="rotate(-90 360 42)" fill="#F7F7F7"/>
<circle cx="370" cy="42" r="2" transform="rotate(-90 370 42)" fill="#F7F7F7"/>
<circle cx="379" cy="42" r="2" transform="rotate(-90 379 42)" fill="#F7F7F7"/>
<circle cx="389" cy="42" r="2" transform="rotate(-90 389 42)" fill="#F7F7F7"/>
<circle cx="398" cy="42" r="2" transform="rotate(-90 398 42)" fill="#F7F7F7"/>
<circle cx="408" cy="42" r="2" transform="rotate(-90 408 42)" fill="#F7F7F7"/>
<circle cx="417" cy="42" r="2" transform="rotate(-90 417 42)" fill="#F7F7F7"/>
<circle cx="360" cy="32" r="2" transform="rotate(-90 360 32)" fill="#F7F7F7"/>
<circle cx="370" cy="32" r="2" transform="rotate(-90 370 32)" fill="#F7F7F7"/>
<circle cx="379" cy="32" r="2" transform="rotate(-90 379 32)" fill="#F7F7F7"/>
<circle cx="389" cy="32" r="2" transform="rotate(-90 389 32)" fill="#F7F7F7"/>
<circle cx="398" cy="32" r="2" transform="rotate(-90 398 32)" fill="#F7F7F7"/>
<circle cx="408" cy="32" r="2" transform="rotate(-90 408 32)" fill="#F7F7F7"/>
<circle cx="417" cy="32" r="2" transform="rotate(-90 417 32)" fill="#F7F7F7"/>
</g>
<path d="M178.208 125H134.351V116.299L155.049 94.2383C157.891 91.1328 159.985 88.4229 161.333 86.1084C162.71 83.7939 163.398 81.5967 163.398 79.5166C163.398 76.6748 162.681 74.4482 161.245 72.8369C159.81 71.1963 157.759 70.376 155.093 70.376C152.222 70.376 149.951 71.3721 148.281 73.3643C146.641 75.3271 145.82 77.9199 145.82 81.1426H133.076C133.076 77.2461 133.999 73.6865 135.845 70.4639C137.72 67.2412 140.356 64.7217 143.755 62.9053C147.153 61.0596 151.006 60.1367 155.312 60.1367C161.904 60.1367 167.017 61.7188 170.649 64.8828C174.312 68.0469 176.143 72.5146 176.143 78.2861C176.143 81.4502 175.322 84.6729 173.682 87.9541C172.041 91.2354 169.229 95.0586 165.244 99.4238L150.698 114.761H178.208V125ZM198.95 87.3828H205.718C208.94 87.3828 211.328 86.5771 212.881 84.9658C214.434 83.3545 215.21 81.2158 215.21 78.5498C215.21 75.9717 214.434 73.9648 212.881 72.5293C211.357 71.0938 209.248 70.376 206.553 70.376C204.121 70.376 202.085 71.0498 200.444 72.3975C198.804 73.7158 197.983 75.4443 197.983 77.583H185.283C185.283 74.2432 186.177 71.2549 187.964 68.6182C189.78 65.9521 192.3 63.8721 195.522 62.3779C198.774 60.8838 202.349 60.1367 206.245 60.1367C213.013 60.1367 218.315 61.7627 222.153 65.0146C225.991 68.2373 227.91 72.6904 227.91 78.374C227.91 81.3037 227.017 83.999 225.229 86.46C223.442 88.9209 221.099 90.8105 218.198 92.1289C221.802 93.418 224.482 95.3516 226.24 97.9297C228.027 100.508 228.921 103.555 228.921 107.07C228.921 112.754 226.841 117.31 222.681 120.737C218.55 124.165 213.071 125.879 206.245 125.879C199.858 125.879 194.629 124.194 190.557 120.825C186.514 117.456 184.492 113.003 184.492 107.466H197.192C197.192 109.868 198.086 111.831 199.873 113.354C201.689 114.878 203.916 115.64 206.553 115.64C209.57 115.64 211.929 114.849 213.628 113.267C215.356 111.655 216.221 109.531 216.221 106.895C216.221 100.508 212.705 97.3145 205.674 97.3145H198.95V87.3828ZM241.533 141.04L234.897 137.568L236.479 134.712C238.442 131.138 239.453 127.578 239.512 124.033V114.189H250.234L250.19 122.979C250.161 126.23 249.341 129.512 247.729 132.822C246.118 136.133 244.053 138.872 241.533 141.04ZM303.188 68.1348L278.447 125H265.044L289.829 71.2988H258.013V61.0156H303.188V68.1348ZM311.187 73.3203C311.187 69.3945 312.461 66.2158 315.01 63.7842C317.559 61.3232 320.898 60.0928 325.029 60.0928C329.219 60.0928 332.588 61.3086 335.137 63.7402C337.686 66.1426 338.96 69.4092 338.96 73.54V76.7041C338.96 80.6592 337.686 83.8379 335.137 86.2402C332.588 88.6426 329.248 89.8438 325.117 89.8438C320.957 89.8438 317.588 88.6426 315.01 86.2402C312.461 83.8086 311.187 80.542 311.187 76.4404V73.3203ZM319.624 76.7041C319.624 78.4619 320.122 79.8828 321.118 80.9668C322.144 82.0215 323.477 82.5488 325.117 82.5488C326.758 82.5488 328.062 82.0068 329.028 80.9229C329.995 79.8389 330.479 78.3887 330.479 76.5723V73.3203C330.479 71.5625 329.995 70.1416 329.028 69.0576C328.062 67.9736 326.729 67.4316 325.029 67.4316C323.418 67.4316 322.114 67.9736 321.118 69.0576C320.122 70.1123 319.624 71.5918 319.624 73.4961V76.7041ZM341.772 109.312C341.772 105.356 343.062 102.178 345.64 99.7754C348.218 97.3438 351.558 96.1279 355.659 96.1279C359.819 96.1279 363.174 97.3291 365.723 99.7314C368.301 102.104 369.59 105.386 369.59 109.575V112.739C369.59 116.665 368.33 119.844 365.811 122.275C363.291 124.678 359.937 125.879 355.747 125.879C351.528 125.879 348.145 124.663 345.596 122.231C343.047 119.8 341.772 116.577 341.772 112.563V109.312ZM350.21 112.739C350.21 114.351 350.737 115.728 351.792 116.87C352.847 118.013 354.165 118.584 355.747 118.584C359.321 118.584 361.108 116.606 361.108 112.651V109.312C361.108 107.554 360.61 106.147 359.614 105.093C358.618 104.009 357.3 103.467 355.659 103.467C354.019 103.467 352.7 104.009 351.704 105.093C350.708 106.147 350.21 107.598 350.21 109.443V112.739ZM327.622 120.21L321.426 116.87L352.671 66.8604L358.867 70.2002L327.622 120.21Z" fill="white"/>
<path d="M133.685 169.372L132.468 170.637V174H131.155V164.047H132.468V168.969L136.891 164.047H138.477L134.56 168.442L138.784 174H137.212L133.685 169.372ZM140.699 167.499C141.26 166.811 141.989 166.467 142.887 166.467C144.45 166.467 145.238 167.349 145.252 169.112V174H143.987V169.105C143.983 168.572 143.86 168.178 143.618 167.923C143.381 167.668 143.01 167.54 142.504 167.54C142.094 167.54 141.734 167.649 141.424 167.868C141.114 168.087 140.872 168.374 140.699 168.729V174H139.434V163.5H140.699V167.499ZM151.412 174C151.339 173.854 151.28 173.594 151.234 173.221C150.646 173.831 149.944 174.137 149.129 174.137C148.399 174.137 147.8 173.932 147.331 173.521C146.866 173.107 146.633 172.583 146.633 171.949C146.633 171.179 146.925 170.582 147.508 170.158C148.096 169.73 148.921 169.516 149.983 169.516H151.213V168.935C151.213 168.493 151.081 168.142 150.817 167.882C150.553 167.618 150.163 167.485 149.648 167.485C149.197 167.485 148.819 167.599 148.513 167.827C148.208 168.055 148.055 168.331 148.055 168.654H146.784C146.784 168.285 146.914 167.93 147.173 167.588C147.438 167.242 147.793 166.968 148.24 166.768C148.691 166.567 149.185 166.467 149.723 166.467C150.575 166.467 151.243 166.681 151.726 167.109C152.209 167.533 152.46 168.119 152.478 168.866V172.271C152.478 172.95 152.565 173.49 152.738 173.891V174H151.412ZM149.313 173.036C149.71 173.036 150.086 172.934 150.441 172.729C150.796 172.523 151.054 172.257 151.213 171.929V170.411H150.222C148.673 170.411 147.898 170.865 147.898 171.771C147.898 172.168 148.03 172.478 148.295 172.701C148.559 172.924 148.898 173.036 149.313 173.036ZM160.709 172.257L162.131 166.604H163.396L161.243 174H160.217L158.419 168.395L156.669 174H155.644L153.497 166.604H154.755L156.211 172.141L157.934 166.604H158.953L160.709 172.257ZM168.954 174C168.881 173.854 168.822 173.594 168.777 173.221C168.189 173.831 167.487 174.137 166.671 174.137C165.942 174.137 165.343 173.932 164.873 173.521C164.408 173.107 164.176 172.583 164.176 171.949C164.176 171.179 164.468 170.582 165.051 170.158C165.639 169.73 166.464 169.516 167.526 169.516H168.756V168.935C168.756 168.493 168.624 168.142 168.36 167.882C168.095 167.618 167.706 167.485 167.191 167.485C166.739 167.485 166.361 167.599 166.056 167.827C165.751 168.055 165.598 168.331 165.598 168.654H164.326C164.326 168.285 164.456 167.93 164.716 167.588C164.98 167.242 165.336 166.968 165.782 166.768C166.234 166.567 166.728 166.467 167.266 166.467C168.118 166.467 168.786 166.681 169.269 167.109C169.752 167.533 170.002 168.119 170.021 168.866V172.271C170.021 172.95 170.107 173.49 170.28 173.891V174H168.954ZM166.856 173.036C167.252 173.036 167.628 172.934 167.984 172.729C168.339 172.523 168.597 172.257 168.756 171.929V170.411H167.765C166.215 170.411 165.441 170.865 165.441 171.771C165.441 172.168 165.573 172.478 165.837 172.701C166.101 172.924 166.441 173.036 166.856 173.036ZM173.419 164.812V166.604H174.8V167.581H173.419V172.168C173.419 172.464 173.48 172.688 173.604 172.838C173.727 172.984 173.936 173.057 174.232 173.057C174.378 173.057 174.579 173.029 174.834 172.975V174C174.501 174.091 174.178 174.137 173.863 174.137C173.298 174.137 172.872 173.966 172.585 173.624C172.298 173.282 172.154 172.797 172.154 172.168V167.581H170.808V166.604H172.154V164.812H173.419ZM177.357 174H176.093V166.604H177.357V174ZM175.99 164.642C175.99 164.437 176.052 164.263 176.175 164.122C176.302 163.981 176.489 163.91 176.735 163.91C176.981 163.91 177.168 163.981 177.296 164.122C177.423 164.263 177.487 164.437 177.487 164.642C177.487 164.847 177.423 165.018 177.296 165.154C177.168 165.291 176.981 165.359 176.735 165.359C176.489 165.359 176.302 165.291 176.175 165.154C176.052 165.018 175.99 164.847 175.99 164.642ZM182.663 167.738C182.471 167.706 182.264 167.69 182.041 167.69C181.211 167.69 180.648 168.044 180.352 168.75V174H179.088V166.604H180.318L180.338 167.458C180.753 166.797 181.341 166.467 182.102 166.467C182.348 166.467 182.535 166.499 182.663 166.562V167.738ZM192.966 170.384C192.966 171.514 192.706 172.423 192.187 173.111C191.667 173.795 190.97 174.137 190.095 174.137C189.161 174.137 188.438 173.806 187.928 173.146L187.866 174H186.704V163.5H187.969V167.417C188.479 166.784 189.183 166.467 190.081 166.467C190.979 166.467 191.683 166.806 192.194 167.485C192.709 168.164 192.966 169.094 192.966 170.274V170.384ZM191.701 170.24C191.701 169.379 191.535 168.714 191.202 168.244C190.87 167.775 190.391 167.54 189.767 167.54C188.933 167.54 188.334 167.927 187.969 168.702V171.901C188.356 172.676 188.96 173.063 189.78 173.063C190.387 173.063 190.858 172.829 191.196 172.359C191.533 171.89 191.701 171.184 191.701 170.24ZM198.832 173.269C198.34 173.847 197.618 174.137 196.665 174.137C195.877 174.137 195.275 173.909 194.86 173.453C194.45 172.993 194.243 172.314 194.238 171.416V166.604H195.503V171.382C195.503 172.503 195.959 173.063 196.87 173.063C197.836 173.063 198.479 172.703 198.798 171.983V166.604H200.062V174H198.859L198.832 173.269ZM203.406 164.812V166.604H204.787V167.581H203.406V172.168C203.406 172.464 203.468 172.688 203.591 172.838C203.714 172.984 203.923 173.057 204.22 173.057C204.365 173.057 204.566 173.029 204.821 172.975V174C204.488 174.091 204.165 174.137 203.85 174.137C203.285 174.137 202.859 173.966 202.572 173.624C202.285 173.282 202.141 172.797 202.141 172.168V167.581H200.795V166.604H202.141V164.812H203.406ZM210.537 173.269C210.045 173.847 209.322 174.137 208.37 174.137C207.581 174.137 206.98 173.909 206.565 173.453C206.155 172.993 205.948 172.314 205.943 171.416V166.604H207.208V171.382C207.208 172.503 207.663 173.063 208.575 173.063C209.541 173.063 210.184 172.703 210.503 171.983V166.604H211.767V174H210.564L210.537 173.269ZM214.66 167.499C215.22 166.811 215.949 166.467 216.847 166.467C218.41 166.467 219.199 167.349 219.212 169.112V174H217.948V169.105C217.943 168.572 217.82 168.178 217.579 167.923C217.342 167.668 216.97 167.54 216.464 167.54C216.054 167.54 215.694 167.649 215.384 167.868C215.074 168.087 214.833 168.374 214.66 168.729V174H213.395V163.5H214.66V167.499ZM225.168 166.604L225.202 167.424C225.744 166.786 226.476 166.467 227.396 166.467C228.431 166.467 229.135 166.863 229.509 167.656C229.755 167.301 230.074 167.014 230.466 166.795C230.862 166.576 231.329 166.467 231.867 166.467C233.49 166.467 234.314 167.326 234.342 169.044V174H233.077V169.119C233.077 168.59 232.956 168.196 232.715 167.937C232.473 167.672 232.068 167.54 231.498 167.54C231.029 167.54 230.639 167.681 230.329 167.964C230.019 168.242 229.839 168.618 229.789 169.092V174H228.518V169.153C228.518 168.078 227.991 167.54 226.938 167.54C226.109 167.54 225.542 167.893 225.236 168.6V174H223.972V166.604H225.168ZM235.621 170.233C235.621 169.509 235.762 168.857 236.045 168.278C236.332 167.7 236.728 167.253 237.234 166.938C237.745 166.624 238.326 166.467 238.977 166.467C239.985 166.467 240.798 166.815 241.418 167.513C242.042 168.21 242.354 169.137 242.354 170.295V170.384C242.354 171.104 242.215 171.751 241.937 172.325C241.664 172.895 241.27 173.339 240.755 173.658C240.244 173.977 239.656 174.137 238.991 174.137C237.988 174.137 237.175 173.788 236.551 173.091C235.931 172.394 235.621 171.471 235.621 170.322V170.233ZM236.892 170.384C236.892 171.204 237.082 171.863 237.46 172.359C237.843 172.856 238.353 173.104 238.991 173.104C239.634 173.104 240.144 172.854 240.522 172.353C240.901 171.847 241.09 171.14 241.09 170.233C241.09 169.422 240.896 168.766 240.509 168.265C240.126 167.759 239.615 167.506 238.977 167.506C238.353 167.506 237.849 167.754 237.467 168.251C237.084 168.748 236.892 169.459 236.892 170.384ZM243.333 170.24C243.333 169.105 243.601 168.194 244.139 167.506C244.677 166.813 245.381 166.467 246.252 166.467C247.117 166.467 247.803 166.763 248.309 167.355V163.5H249.574V174H248.412L248.35 173.207C247.844 173.827 247.14 174.137 246.238 174.137C245.381 174.137 244.682 173.786 244.139 173.084C243.601 172.382 243.333 171.466 243.333 170.336V170.24ZM244.597 170.384C244.597 171.222 244.77 171.879 245.117 172.353C245.463 172.826 245.942 173.063 246.552 173.063C247.354 173.063 247.94 172.703 248.309 171.983V168.586C247.931 167.889 247.35 167.54 246.566 167.54C245.946 167.54 245.463 167.779 245.117 168.258C244.77 168.736 244.597 169.445 244.597 170.384ZM255.809 174C255.736 173.854 255.677 173.594 255.631 173.221C255.043 173.831 254.342 174.137 253.526 174.137C252.797 174.137 252.197 173.932 251.728 173.521C251.263 173.107 251.031 172.583 251.031 171.949C251.031 171.179 251.322 170.582 251.906 170.158C252.494 169.73 253.318 169.516 254.38 169.516H255.611V168.935C255.611 168.493 255.479 168.142 255.214 167.882C254.95 167.618 254.56 167.485 254.045 167.485C253.594 167.485 253.216 167.599 252.911 167.827C252.605 168.055 252.453 168.331 252.453 168.654H251.181C251.181 168.285 251.311 167.93 251.571 167.588C251.835 167.242 252.19 166.968 252.637 166.768C253.088 166.567 253.583 166.467 254.121 166.467C254.973 166.467 255.64 166.681 256.123 167.109C256.607 167.533 256.857 168.119 256.875 168.866V172.271C256.875 172.95 256.962 173.49 257.135 173.891V174H255.809ZM253.71 173.036C254.107 173.036 254.483 172.934 254.838 172.729C255.194 172.523 255.451 172.257 255.611 171.929V170.411H254.62C253.07 170.411 252.295 170.865 252.295 171.771C252.295 172.168 252.427 172.478 252.692 172.701C252.956 172.924 253.296 173.036 253.71 173.036ZM259.932 174H258.667V163.5H259.932V174ZM269.401 173.269C268.909 173.847 268.187 174.137 267.234 174.137C266.446 174.137 265.844 173.909 265.429 173.453C265.019 172.993 264.812 172.314 264.807 171.416V166.604H266.072V171.382C266.072 172.503 266.528 173.063 267.439 173.063C268.405 173.063 269.048 172.703 269.367 171.983V166.604H270.632V174H269.429L269.401 173.269ZM276.566 172.038C276.566 171.696 276.436 171.432 276.176 171.245C275.921 171.054 275.472 170.89 274.83 170.753C274.192 170.616 273.684 170.452 273.305 170.261C272.932 170.069 272.654 169.841 272.471 169.577C272.294 169.313 272.205 168.998 272.205 168.634C272.205 168.028 272.46 167.515 272.97 167.096C273.485 166.676 274.142 166.467 274.939 166.467C275.778 166.467 276.457 166.683 276.976 167.116C277.5 167.549 277.762 168.103 277.762 168.777H276.491C276.491 168.431 276.343 168.132 276.046 167.882C275.755 167.631 275.386 167.506 274.939 167.506C274.479 167.506 274.119 167.606 273.859 167.807C273.599 168.007 273.469 168.269 273.469 168.593C273.469 168.898 273.59 169.128 273.832 169.283C274.073 169.438 274.508 169.586 275.137 169.728C275.771 169.869 276.283 170.037 276.675 170.233C277.067 170.429 277.357 170.666 277.544 170.944C277.735 171.218 277.831 171.553 277.831 171.949C277.831 172.61 277.566 173.141 277.038 173.542C276.509 173.938 275.823 174.137 274.98 174.137C274.388 174.137 273.864 174.032 273.408 173.822C272.952 173.613 272.594 173.321 272.335 172.947C272.079 172.569 271.952 172.161 271.952 171.724H273.216C273.239 172.147 273.408 172.485 273.722 172.735C274.041 172.981 274.461 173.104 274.98 173.104C275.459 173.104 275.841 173.009 276.129 172.817C276.42 172.621 276.566 172.362 276.566 172.038ZM283.745 174C283.672 173.854 283.612 173.594 283.567 173.221C282.979 173.831 282.277 174.137 281.461 174.137C280.732 174.137 280.133 173.932 279.663 173.521C279.199 173.107 278.966 172.583 278.966 171.949C278.966 171.179 279.258 170.582 279.841 170.158C280.429 169.73 281.254 169.516 282.316 169.516H283.546V168.935C283.546 168.493 283.414 168.142 283.15 167.882C282.885 167.618 282.496 167.485 281.981 167.485C281.53 167.485 281.151 167.599 280.846 167.827C280.541 168.055 280.388 168.331 280.388 168.654H279.117C279.117 168.285 279.246 167.93 279.506 167.588C279.771 167.242 280.126 166.968 280.573 166.768C281.024 166.567 281.518 166.467 282.056 166.467C282.908 166.467 283.576 166.681 284.059 167.109C284.542 167.533 284.793 168.119 284.811 168.866V172.271C284.811 172.95 284.898 173.49 285.071 173.891V174H283.745ZM281.646 173.036C282.042 173.036 282.418 172.934 282.774 172.729C283.129 172.523 283.387 172.257 283.546 171.929V170.411H282.555C281.006 170.411 280.231 170.865 280.231 171.771C280.231 172.168 280.363 172.478 280.627 172.701C280.892 172.924 281.231 173.036 281.646 173.036ZM287.758 167.499C288.319 166.811 289.048 166.467 289.946 166.467C291.509 166.467 292.297 167.349 292.311 169.112V174H291.046V169.105C291.042 168.572 290.918 168.178 290.677 167.923C290.44 167.668 290.069 167.54 289.563 167.54C289.153 167.54 288.793 167.649 288.483 167.868C288.173 168.087 287.931 168.374 287.758 168.729V174H286.493V163.5H287.758V167.499ZM298.471 174C298.398 173.854 298.339 173.594 298.293 173.221C297.705 173.831 297.003 174.137 296.188 174.137C295.458 174.137 294.859 173.932 294.39 173.521C293.925 173.107 293.692 172.583 293.692 171.949C293.692 171.179 293.984 170.582 294.567 170.158C295.155 169.73 295.98 169.516 297.042 169.516H298.272V168.935C298.272 168.493 298.14 168.142 297.876 167.882C297.612 167.618 297.222 167.485 296.707 167.485C296.256 167.485 295.878 167.599 295.572 167.827C295.267 168.055 295.114 168.331 295.114 168.654H293.843C293.843 168.285 293.973 167.93 294.232 167.588C294.497 167.242 294.852 166.968 295.299 166.768C295.75 166.567 296.244 166.467 296.782 166.467C297.634 166.467 298.302 166.681 298.785 167.109C299.268 167.533 299.519 168.119 299.537 168.866V172.271C299.537 172.95 299.624 173.49 299.797 173.891V174H298.471ZM296.372 173.036C296.769 173.036 297.145 172.934 297.5 172.729C297.855 172.523 298.113 172.257 298.272 171.929V170.411H297.281C295.732 170.411 294.957 170.865 294.957 171.771C294.957 172.168 295.089 172.478 295.354 172.701C295.618 172.924 295.957 173.036 296.372 173.036ZM306.812 172.147L308.535 166.604H309.888L306.915 175.142C306.454 176.372 305.723 176.987 304.72 176.987L304.481 176.967L304.009 176.878V175.853L304.351 175.88C304.78 175.88 305.112 175.793 305.349 175.62C305.591 175.447 305.789 175.13 305.944 174.67L306.224 173.918L303.586 166.604H304.966L306.812 172.147ZM315.18 174C315.107 173.854 315.048 173.594 315.002 173.221C314.414 173.831 313.713 174.137 312.897 174.137C312.168 174.137 311.568 173.932 311.099 173.521C310.634 173.107 310.402 172.583 310.402 171.949C310.402 171.179 310.693 170.582 311.277 170.158C311.865 169.73 312.69 169.516 313.751 169.516H314.982V168.935C314.982 168.493 314.85 168.142 314.585 167.882C314.321 167.618 313.931 167.485 313.416 167.485C312.965 167.485 312.587 167.599 312.282 167.827C311.976 168.055 311.824 168.331 311.824 168.654H310.552C310.552 168.285 310.682 167.93 310.942 167.588C311.206 167.242 311.562 166.968 312.008 166.768C312.459 166.567 312.954 166.467 313.492 166.467C314.344 166.467 315.011 166.681 315.495 167.109C315.978 167.533 316.228 168.119 316.246 168.866V172.271C316.246 172.95 316.333 173.49 316.506 173.891V174H315.18ZM313.081 173.036C313.478 173.036 313.854 172.934 314.209 172.729C314.565 172.523 314.822 172.257 314.982 171.929V170.411H313.991C312.441 170.411 311.666 170.865 311.666 171.771C311.666 172.168 311.799 172.478 312.063 172.701C312.327 172.924 312.667 173.036 313.081 173.036ZM319.125 166.604L319.166 167.533C319.731 166.822 320.47 166.467 321.381 166.467C322.944 166.467 323.733 167.349 323.746 169.112V174H322.482V169.105C322.477 168.572 322.354 168.178 322.113 167.923C321.876 167.668 321.504 167.54 320.998 167.54C320.588 167.54 320.228 167.649 319.918 167.868C319.608 168.087 319.367 168.374 319.194 168.729V174H317.929V166.604H319.125ZM325.053 170.24C325.053 169.087 325.319 168.171 325.853 167.492C326.386 166.809 327.092 166.467 327.972 166.467C328.874 166.467 329.578 166.786 330.084 167.424L330.146 166.604H331.301V173.822C331.301 174.779 331.016 175.534 330.446 176.085C329.881 176.636 329.12 176.912 328.163 176.912C327.63 176.912 327.108 176.798 326.598 176.57C326.087 176.342 325.698 176.03 325.429 175.634L326.085 174.875C326.627 175.545 327.29 175.88 328.074 175.88C328.689 175.88 329.168 175.707 329.51 175.36C329.856 175.014 330.029 174.526 330.029 173.897V173.262C329.523 173.845 328.833 174.137 327.958 174.137C327.092 174.137 326.39 173.788 325.853 173.091C325.319 172.394 325.053 171.443 325.053 170.24ZM326.324 170.384C326.324 171.218 326.495 171.874 326.837 172.353C327.179 172.826 327.657 173.063 328.272 173.063C329.07 173.063 329.656 172.701 330.029 171.977V168.6C329.642 167.893 329.061 167.54 328.286 167.54C327.671 167.54 327.19 167.779 326.844 168.258C326.497 168.736 326.324 169.445 326.324 170.384ZM340.394 172.038C340.394 171.696 340.264 171.432 340.004 171.245C339.749 171.054 339.3 170.89 338.658 170.753C338.02 170.616 337.512 170.452 337.133 170.261C336.76 170.069 336.482 169.841 336.299 169.577C336.122 169.313 336.033 168.998 336.033 168.634C336.033 168.028 336.288 167.515 336.798 167.096C337.313 166.676 337.97 166.467 338.767 166.467C339.606 166.467 340.285 166.683 340.804 167.116C341.328 167.549 341.59 168.103 341.59 168.777H340.319C340.319 168.431 340.171 168.132 339.875 167.882C339.583 167.631 339.214 167.506 338.767 167.506C338.307 167.506 337.947 167.606 337.687 167.807C337.427 168.007 337.297 168.269 337.297 168.593C337.297 168.898 337.418 169.128 337.66 169.283C337.901 169.438 338.337 169.586 338.965 169.728C339.599 169.869 340.112 170.037 340.504 170.233C340.895 170.429 341.185 170.666 341.372 170.944C341.563 171.218 341.659 171.553 341.659 171.949C341.659 172.61 341.394 173.141 340.866 173.542C340.337 173.938 339.651 174.137 338.808 174.137C338.216 174.137 337.692 174.032 337.236 173.822C336.78 173.613 336.422 173.321 336.163 172.947C335.907 172.569 335.78 172.161 335.78 171.724H337.045C337.067 172.147 337.236 172.485 337.55 172.735C337.869 172.981 338.289 173.104 338.808 173.104C339.287 173.104 339.67 173.009 339.957 172.817C340.248 172.621 340.394 172.362 340.394 172.038ZM347.573 174C347.5 173.854 347.441 173.594 347.395 173.221C346.807 173.831 346.105 174.137 345.289 174.137C344.56 174.137 343.961 173.932 343.492 173.521C343.027 173.107 342.794 172.583 342.794 171.949C342.794 171.179 343.086 170.582 343.669 170.158C344.257 169.73 345.082 169.516 346.144 169.516H347.374V168.935C347.374 168.493 347.242 168.142 346.978 167.882C346.714 167.618 346.324 167.485 345.809 167.485C345.358 167.485 344.98 167.599 344.674 167.827C344.369 168.055 344.216 168.331 344.216 168.654H342.945C342.945 168.285 343.075 167.93 343.334 167.588C343.599 167.242 343.954 166.968 344.401 166.768C344.852 166.567 345.346 166.467 345.884 166.467C346.736 166.467 347.404 166.681 347.887 167.109C348.37 167.533 348.621 168.119 348.639 168.866V172.271C348.639 172.95 348.726 173.49 348.899 173.891V174H347.573ZM345.474 173.036C345.871 173.036 346.246 172.934 346.602 172.729C346.957 172.523 347.215 172.257 347.374 171.929V170.411H346.383C344.834 170.411 344.059 170.865 344.059 171.771C344.059 172.168 344.191 172.478 344.455 172.701C344.72 172.924 345.059 173.036 345.474 173.036ZM351.518 166.604L351.559 167.533C352.124 166.822 352.862 166.467 353.774 166.467C355.337 166.467 356.125 167.349 356.139 169.112V174H354.874V169.105C354.87 168.572 354.747 168.178 354.505 167.923C354.268 167.668 353.897 167.54 353.391 167.54C352.981 167.54 352.621 167.649 352.311 167.868C352.001 168.087 351.759 168.374 351.586 168.729V174H350.321V166.604H351.518ZM357.445 170.24C357.445 169.087 357.712 168.171 358.245 167.492C358.778 166.809 359.485 166.467 360.364 166.467C361.267 166.467 361.971 166.786 362.477 167.424L362.538 166.604H363.693V173.822C363.693 174.779 363.409 175.534 362.839 176.085C362.274 176.636 361.513 176.912 360.556 176.912C360.022 176.912 359.501 176.798 358.99 176.57C358.48 176.342 358.09 176.03 357.821 175.634L358.478 174.875C359.02 175.545 359.683 175.88 360.467 175.88C361.082 175.88 361.561 175.707 361.902 175.36C362.249 175.014 362.422 174.526 362.422 173.897V173.262C361.916 173.845 361.226 174.137 360.351 174.137C359.485 174.137 358.783 173.788 358.245 173.091C357.712 172.394 357.445 171.443 357.445 170.24ZM358.717 170.384C358.717 171.218 358.888 171.874 359.229 172.353C359.571 172.826 360.05 173.063 360.665 173.063C361.463 173.063 362.048 172.701 362.422 171.977V168.6C362.035 167.893 361.453 167.54 360.679 167.54C360.063 167.54 359.583 167.779 359.236 168.258C358.89 168.736 358.717 169.445 358.717 170.384ZM369.874 174C369.801 173.854 369.742 173.594 369.696 173.221C369.108 173.831 368.406 174.137 367.591 174.137C366.861 174.137 366.262 173.932 365.793 173.521C365.328 173.107 365.096 172.583 365.096 171.949C365.096 171.179 365.387 170.582 365.971 170.158C366.558 169.73 367.383 169.516 368.445 169.516H369.676V168.935C369.676 168.493 369.543 168.142 369.279 167.882C369.015 167.618 368.625 167.485 368.11 167.485C367.659 167.485 367.281 167.599 366.975 167.827C366.67 168.055 366.517 168.331 366.517 168.654H365.246C365.246 168.285 365.376 167.93 365.636 167.588C365.9 167.242 366.255 166.968 366.702 166.768C367.153 166.567 367.648 166.467 368.185 166.467C369.038 166.467 369.705 166.681 370.188 167.109C370.671 167.533 370.922 168.119 370.94 168.866V172.271C370.94 172.95 371.027 173.49 371.2 173.891V174H369.874ZM367.775 173.036C368.172 173.036 368.548 172.934 368.903 172.729C369.259 172.523 369.516 172.257 369.676 171.929V170.411H368.684C367.135 170.411 366.36 170.865 366.36 171.771C366.36 172.168 366.492 172.478 366.757 172.701C367.021 172.924 367.36 173.036 367.775 173.036ZM374.338 164.812V166.604H375.719V167.581H374.338V172.168C374.338 172.464 374.4 172.688 374.523 172.838C374.646 172.984 374.856 173.057 375.152 173.057C375.298 173.057 375.498 173.029 375.754 172.975V174C375.421 174.091 375.097 174.137 374.783 174.137C374.218 174.137 373.792 173.966 373.504 173.624C373.217 173.282 373.074 172.797 373.074 172.168V167.581H371.727V166.604H373.074V164.812H374.338ZM137.219 192.384C137.219 193.514 136.959 194.423 136.439 195.111C135.92 195.795 135.223 196.137 134.348 196.137C133.413 196.137 132.691 195.806 132.181 195.146L132.119 196H130.957V185.5H132.222V189.417C132.732 188.784 133.436 188.467 134.334 188.467C135.232 188.467 135.936 188.806 136.446 189.485C136.961 190.164 137.219 191.094 137.219 192.274V192.384ZM135.954 192.24C135.954 191.379 135.788 190.714 135.455 190.244C135.122 189.775 134.644 189.54 134.02 189.54C133.186 189.54 132.586 189.927 132.222 190.702V193.901C132.609 194.676 133.213 195.063 134.033 195.063C134.639 195.063 135.111 194.829 135.448 194.359C135.785 193.89 135.954 193.184 135.954 192.24ZM141.588 196.137C140.585 196.137 139.769 195.809 139.14 195.152C138.512 194.492 138.197 193.61 138.197 192.507V192.274C138.197 191.541 138.336 190.887 138.614 190.312C138.897 189.734 139.289 189.283 139.79 188.959C140.296 188.631 140.843 188.467 141.43 188.467C142.392 188.467 143.139 188.784 143.673 189.417C144.206 190.05 144.472 190.957 144.472 192.138V192.664H139.462C139.48 193.393 139.692 193.983 140.097 194.435C140.508 194.881 141.027 195.104 141.656 195.104C142.103 195.104 142.481 195.013 142.791 194.831C143.101 194.649 143.372 194.407 143.604 194.106L144.377 194.708C143.757 195.66 142.827 196.137 141.588 196.137ZM141.43 189.506C140.92 189.506 140.492 189.693 140.145 190.066C139.799 190.436 139.585 190.955 139.503 191.625H143.208V191.529C143.171 190.887 142.998 190.39 142.688 190.039C142.378 189.684 141.959 189.506 141.43 189.506ZM149.949 194.038C149.949 193.696 149.819 193.432 149.559 193.245C149.304 193.054 148.855 192.89 148.212 192.753C147.574 192.616 147.066 192.452 146.688 192.261C146.314 192.069 146.036 191.841 145.854 191.577C145.676 191.313 145.587 190.998 145.587 190.634C145.587 190.028 145.843 189.515 146.353 189.096C146.868 188.676 147.524 188.467 148.322 188.467C149.16 188.467 149.839 188.683 150.359 189.116C150.883 189.549 151.145 190.103 151.145 190.777H149.874C149.874 190.431 149.726 190.132 149.429 189.882C149.138 189.631 148.768 189.506 148.322 189.506C147.862 189.506 147.502 189.606 147.242 189.807C146.982 190.007 146.852 190.269 146.852 190.593C146.852 190.898 146.973 191.128 147.214 191.283C147.456 191.438 147.891 191.586 148.52 191.728C149.154 191.869 149.666 192.037 150.058 192.233C150.45 192.429 150.74 192.666 150.926 192.944C151.118 193.218 151.213 193.553 151.213 193.949C151.213 194.61 150.949 195.141 150.421 195.542C149.892 195.938 149.206 196.137 148.363 196.137C147.77 196.137 147.246 196.032 146.791 195.822C146.335 195.613 145.977 195.321 145.717 194.947C145.462 194.569 145.335 194.161 145.335 193.724H146.599C146.622 194.147 146.791 194.485 147.105 194.735C147.424 194.981 147.843 195.104 148.363 195.104C148.841 195.104 149.224 195.009 149.511 194.817C149.803 194.621 149.949 194.362 149.949 194.038ZM157.127 196C157.054 195.854 156.995 195.594 156.95 195.221C156.362 195.831 155.66 196.137 154.844 196.137C154.115 196.137 153.516 195.932 153.046 195.521C152.581 195.107 152.349 194.583 152.349 193.949C152.349 193.179 152.641 192.582 153.224 192.158C153.812 191.73 154.637 191.516 155.699 191.516H156.929V190.935C156.929 190.493 156.797 190.142 156.533 189.882C156.268 189.618 155.879 189.485 155.364 189.485C154.913 189.485 154.534 189.599 154.229 189.827C153.924 190.055 153.771 190.331 153.771 190.654H152.499C152.499 190.285 152.629 189.93 152.889 189.588C153.153 189.242 153.509 188.968 153.955 188.768C154.407 188.567 154.901 188.467 155.439 188.467C156.291 188.467 156.959 188.681 157.442 189.109C157.925 189.533 158.176 190.119 158.194 190.866V194.271C158.194 194.95 158.28 195.49 158.454 195.891V196H157.127ZM155.029 195.036C155.425 195.036 155.801 194.934 156.157 194.729C156.512 194.523 156.77 194.257 156.929 193.929V192.411H155.938C154.388 192.411 153.614 192.865 153.614 193.771C153.614 194.168 153.746 194.478 154.01 194.701C154.274 194.924 154.614 195.036 155.029 195.036ZM163.451 189.738C163.26 189.706 163.053 189.69 162.829 189.69C162 189.69 161.437 190.044 161.141 190.75V196H159.876V188.604H161.107L161.127 189.458C161.542 188.797 162.13 188.467 162.891 188.467C163.137 188.467 163.324 188.499 163.451 188.562V189.738ZM163.5 195.337C163.5 195.118 163.564 194.936 163.691 194.79C163.824 194.644 164.02 194.571 164.279 194.571C164.539 194.571 164.735 194.644 164.867 194.79C165.004 194.936 165.072 195.118 165.072 195.337C165.072 195.547 165.004 195.722 164.867 195.863C164.735 196.005 164.539 196.075 164.279 196.075C164.02 196.075 163.824 196.005 163.691 195.863C163.564 195.722 163.5 195.547 163.5 195.337ZM171.547 192.104V196H170.235V186.047H173.906C174.995 186.047 175.847 186.325 176.463 186.881C177.082 187.437 177.392 188.173 177.392 189.089C177.392 190.055 177.089 190.8 176.483 191.324C175.881 191.844 175.018 192.104 173.892 192.104H171.547ZM171.547 191.03H173.906C174.608 191.03 175.145 190.866 175.519 190.538C175.893 190.205 176.08 189.727 176.08 189.103C176.08 188.51 175.893 188.036 175.519 187.681C175.145 187.325 174.633 187.141 173.981 187.127H171.547V191.03ZM183.053 196C182.98 195.854 182.921 195.594 182.875 195.221C182.287 195.831 181.586 196.137 180.77 196.137C180.041 196.137 179.441 195.932 178.972 195.521C178.507 195.107 178.275 194.583 178.275 193.949C178.275 193.179 178.566 192.582 179.15 192.158C179.738 191.73 180.563 191.516 181.624 191.516H182.855V190.935C182.855 190.493 182.723 190.142 182.458 189.882C182.194 189.618 181.804 189.485 181.289 189.485C180.838 189.485 180.46 189.599 180.155 189.827C179.849 190.055 179.697 190.331 179.697 190.654H178.425C178.425 190.285 178.555 189.93 178.815 189.588C179.079 189.242 179.435 188.968 179.881 188.768C180.332 188.567 180.827 188.467 181.365 188.467C182.217 188.467 182.885 188.681 183.368 189.109C183.851 189.533 184.101 190.119 184.12 190.866V194.271C184.12 194.95 184.206 195.49 184.379 195.891V196H183.053ZM180.954 195.036C181.351 195.036 181.727 194.934 182.082 194.729C182.438 194.523 182.695 194.257 182.855 193.929V192.411H181.864C180.314 192.411 179.539 192.865 179.539 193.771C179.539 194.168 179.672 194.478 179.936 194.701C180.2 194.924 180.54 195.036 180.954 195.036ZM185.494 192.24C185.494 191.105 185.763 190.194 186.301 189.506C186.839 188.813 187.543 188.467 188.413 188.467C189.279 188.467 189.965 188.763 190.471 189.355V185.5H191.736V196H190.573L190.512 195.207C190.006 195.827 189.302 196.137 188.4 196.137C187.543 196.137 186.843 195.786 186.301 195.084C185.763 194.382 185.494 193.466 185.494 192.336V192.24ZM186.759 192.384C186.759 193.222 186.932 193.879 187.279 194.353C187.625 194.826 188.103 195.063 188.714 195.063C189.516 195.063 190.102 194.703 190.471 193.983V190.586C190.093 189.889 189.512 189.54 188.728 189.54C188.108 189.54 187.625 189.779 187.279 190.258C186.932 190.736 186.759 191.445 186.759 192.384ZM197.971 196C197.898 195.854 197.839 195.594 197.793 195.221C197.205 195.831 196.503 196.137 195.688 196.137C194.958 196.137 194.359 195.932 193.89 195.521C193.425 195.107 193.192 194.583 193.192 193.949C193.192 193.179 193.484 192.582 194.067 192.158C194.655 191.73 195.48 191.516 196.542 191.516H197.772V190.935C197.772 190.493 197.64 190.142 197.376 189.882C197.112 189.618 196.722 189.485 196.207 189.485C195.756 189.485 195.378 189.599 195.072 189.827C194.767 190.055 194.614 190.331 194.614 190.654H193.343C193.343 190.285 193.473 189.93 193.732 189.588C193.997 189.242 194.352 188.968 194.799 188.768C195.25 188.567 195.744 188.467 196.282 188.467C197.134 188.467 197.802 188.681 198.285 189.109C198.768 189.533 199.019 190.119 199.037 190.866V194.271C199.037 194.95 199.124 195.49 199.297 195.891V196H197.971ZM195.872 195.036C196.269 195.036 196.645 194.934 197 194.729C197.355 194.523 197.613 194.257 197.772 193.929V192.411H196.781C195.232 192.411 194.457 192.865 194.457 193.771C194.457 194.168 194.589 194.478 194.854 194.701C195.118 194.924 195.457 195.036 195.872 195.036ZM201.984 189.499C202.545 188.811 203.274 188.467 204.172 188.467C205.735 188.467 206.523 189.349 206.537 191.112V196H205.272V191.105C205.268 190.572 205.145 190.178 204.903 189.923C204.666 189.668 204.295 189.54 203.789 189.54C203.379 189.54 203.019 189.649 202.709 189.868C202.399 190.087 202.157 190.374 201.984 190.729V196H200.72V185.5H201.984V189.499ZM212.697 196C212.624 195.854 212.565 195.594 212.519 195.221C211.931 195.831 211.229 196.137 210.414 196.137C209.685 196.137 209.085 195.932 208.616 195.521C208.151 195.107 207.919 194.583 207.919 193.949C207.919 193.179 208.21 192.582 208.794 192.158C209.381 191.73 210.206 191.516 211.268 191.516H212.499V190.935C212.499 190.493 212.366 190.142 212.102 189.882C211.838 189.618 211.448 189.485 210.933 189.485C210.482 189.485 210.104 189.599 209.798 189.827C209.493 190.055 209.34 190.331 209.34 190.654H208.069C208.069 190.285 208.199 189.93 208.459 189.588C208.723 189.242 209.078 188.968 209.525 188.768C209.976 188.567 210.471 188.467 211.008 188.467C211.861 188.467 212.528 188.681 213.011 189.109C213.494 189.533 213.745 190.119 213.763 190.866V194.271C213.763 194.95 213.85 195.49 214.023 195.891V196H212.697ZM210.598 195.036C210.995 195.036 211.371 194.934 211.726 194.729C212.082 194.523 212.339 194.257 212.499 193.929V192.411H211.507C209.958 192.411 209.183 192.865 209.183 193.771C209.183 194.168 209.315 194.478 209.58 194.701C209.844 194.924 210.184 195.036 210.598 195.036ZM216.82 196H215.555V185.5H216.82V196ZM227.984 192.384C227.984 193.514 227.725 194.423 227.205 195.111C226.686 195.795 225.988 196.137 225.113 196.137C224.179 196.137 223.457 195.806 222.946 195.146L222.885 196H221.723V185.5H222.987V189.417C223.498 188.784 224.202 188.467 225.1 188.467C225.997 188.467 226.701 188.806 227.212 189.485C227.727 190.164 227.984 191.094 227.984 192.274V192.384ZM226.72 192.24C226.72 191.379 226.553 190.714 226.221 190.244C225.888 189.775 225.41 189.54 224.785 189.54C223.951 189.54 223.352 189.927 222.987 190.702V193.901C223.375 194.676 223.979 195.063 224.799 195.063C225.405 195.063 225.877 194.829 226.214 194.359C226.551 193.89 226.72 193.184 226.72 192.24ZM233.85 196C233.777 195.854 233.718 195.594 233.673 195.221C233.085 195.831 232.383 196.137 231.567 196.137C230.838 196.137 230.239 195.932 229.769 195.521C229.304 195.107 229.072 194.583 229.072 193.949C229.072 193.179 229.364 192.582 229.947 192.158C230.535 191.73 231.36 191.516 232.422 191.516H233.652V190.935C233.652 190.493 233.52 190.142 233.256 189.882C232.991 189.618 232.602 189.485 232.087 189.485C231.636 189.485 231.257 189.599 230.952 189.827C230.647 190.055 230.494 190.331 230.494 190.654H229.222C229.222 190.285 229.352 189.93 229.612 189.588C229.876 189.242 230.232 188.968 230.679 188.768C231.13 188.567 231.624 188.467 232.162 188.467C233.014 188.467 233.682 188.681 234.165 189.109C234.648 189.533 234.899 190.119 234.917 190.866V194.271C234.917 194.95 235.003 195.49 235.177 195.891V196H233.85ZM231.752 195.036C232.148 195.036 232.524 194.934 232.88 194.729C233.235 194.523 233.493 194.257 233.652 193.929V192.411H232.661C231.111 192.411 230.337 192.865 230.337 193.771C230.337 194.168 230.469 194.478 230.733 194.701C230.998 194.924 231.337 195.036 231.752 195.036ZM237.796 188.604L237.837 189.533C238.402 188.822 239.14 188.467 240.051 188.467C241.615 188.467 242.403 189.349 242.417 191.112V196H241.152V191.105C241.147 190.572 241.024 190.178 240.783 189.923C240.546 189.668 240.174 189.54 239.669 189.54C239.258 189.54 238.898 189.649 238.588 189.868C238.279 190.087 238.037 190.374 237.864 190.729V196H236.599V188.604H237.796ZM246.444 194.147L248.166 188.604H249.52L246.546 197.142C246.086 198.372 245.355 198.987 244.352 198.987L244.113 198.967L243.641 198.878V197.853L243.983 197.88C244.411 197.88 244.744 197.793 244.981 197.62C245.222 197.447 245.421 197.13 245.576 196.67L245.856 195.918L243.217 188.604H244.598L246.444 194.147ZM254.812 196C254.739 195.854 254.68 195.594 254.634 195.221C254.046 195.831 253.344 196.137 252.529 196.137C251.799 196.137 251.2 195.932 250.731 195.521C250.266 195.107 250.033 194.583 250.033 193.949C250.033 193.179 250.325 192.582 250.908 192.158C251.496 191.73 252.321 191.516 253.383 191.516H254.613V190.935C254.613 190.493 254.481 190.142 254.217 189.882C253.953 189.618 253.563 189.485 253.048 189.485C252.597 189.485 252.219 189.599 251.913 189.827C251.608 190.055 251.455 190.331 251.455 190.654H250.184C250.184 190.285 250.314 189.93 250.573 189.588C250.838 189.242 251.193 188.968 251.64 188.768C252.091 188.567 252.585 188.467 253.123 188.467C253.975 188.467 254.643 188.681 255.126 189.109C255.609 189.533 255.86 190.119 255.878 190.866V194.271C255.878 194.95 255.965 195.49 256.138 195.891V196H254.812ZM252.713 195.036C253.11 195.036 253.486 194.934 253.841 194.729C254.196 194.523 254.454 194.257 254.613 193.929V192.411H253.622C252.073 192.411 251.298 192.865 251.298 193.771C251.298 194.168 251.43 194.478 251.695 194.701C251.959 194.924 252.298 195.036 252.713 195.036ZM259.625 192.575L258.832 193.402V196H257.567V185.5H258.832V191.851L259.509 191.037L261.812 188.604H263.351L260.473 191.693L263.686 196H262.202L259.625 192.575ZM270.496 195.104C270.947 195.104 271.341 194.968 271.678 194.694C272.016 194.421 272.202 194.079 272.239 193.669H273.435C273.412 194.093 273.267 194.496 272.998 194.879C272.729 195.262 272.369 195.567 271.918 195.795C271.471 196.023 270.997 196.137 270.496 196.137C269.489 196.137 268.686 195.802 268.089 195.132C267.497 194.457 267.201 193.537 267.201 192.37V192.158C267.201 191.438 267.333 190.798 267.597 190.237C267.862 189.677 268.24 189.242 268.732 188.932C269.229 188.622 269.814 188.467 270.489 188.467C271.318 188.467 272.006 188.715 272.553 189.212C273.105 189.709 273.399 190.354 273.435 191.146H272.239C272.202 190.668 272.02 190.276 271.692 189.971C271.368 189.661 270.967 189.506 270.489 189.506C269.846 189.506 269.347 189.738 268.992 190.203C268.641 190.663 268.465 191.331 268.465 192.206V192.445C268.465 193.298 268.641 193.954 268.992 194.414C269.343 194.874 269.844 195.104 270.496 195.104ZM279.123 196C279.051 195.854 278.991 195.594 278.946 195.221C278.358 195.831 277.656 196.137 276.84 196.137C276.111 196.137 275.512 195.932 275.042 195.521C274.578 195.107 274.345 194.583 274.345 193.949C274.345 193.179 274.637 192.582 275.22 192.158C275.808 191.73 276.633 191.516 277.695 191.516H278.925V190.935C278.925 190.493 278.793 190.142 278.529 189.882C278.264 189.618 277.875 189.485 277.36 189.485C276.909 189.485 276.53 189.599 276.225 189.827C275.92 190.055 275.767 190.331 275.767 190.654H274.496C274.496 190.285 274.625 189.93 274.885 189.588C275.149 189.242 275.505 188.968 275.952 188.768C276.403 188.567 276.897 188.467 277.435 188.467C278.287 188.467 278.955 188.681 279.438 189.109C279.921 189.533 280.172 190.119 280.19 190.866V194.271C280.19 194.95 280.276 195.49 280.45 195.891V196H279.123ZM277.025 195.036C277.421 195.036 277.797 194.934 278.153 194.729C278.508 194.523 278.766 194.257 278.925 193.929V192.411H277.934C276.385 192.411 275.61 192.865 275.61 193.771C275.61 194.168 275.742 194.478 276.006 194.701C276.271 194.924 276.61 195.036 277.025 195.036ZM285.447 189.738C285.256 189.706 285.049 189.69 284.825 189.69C283.996 189.69 283.433 190.044 283.137 190.75V196H281.872V188.604H283.103L283.123 189.458C283.538 188.797 284.126 188.467 284.887 188.467C285.133 188.467 285.32 188.499 285.447 188.562V189.738ZM290.609 196C290.536 195.854 290.477 195.594 290.432 195.221C289.844 195.831 289.142 196.137 288.326 196.137C287.597 196.137 286.998 195.932 286.528 195.521C286.063 195.107 285.831 194.583 285.831 193.949C285.831 193.179 286.123 192.582 286.706 192.158C287.294 191.73 288.119 191.516 289.181 191.516H290.411V190.935C290.411 190.493 290.279 190.142 290.015 189.882C289.75 189.618 289.361 189.485 288.846 189.485C288.395 189.485 288.016 189.599 287.711 189.827C287.406 190.055 287.253 190.331 287.253 190.654H285.981C285.981 190.285 286.111 189.93 286.371 189.588C286.635 189.242 286.991 188.968 287.438 188.768C287.889 188.567 288.383 188.467 288.921 188.467C289.773 188.467 290.441 188.681 290.924 189.109C291.407 189.533 291.658 190.119 291.676 190.866V194.271C291.676 194.95 291.762 195.49 291.936 195.891V196H290.609ZM288.511 195.036C288.907 195.036 289.283 194.934 289.639 194.729C289.994 194.523 290.252 194.257 290.411 193.929V192.411H289.42C287.87 192.411 287.096 192.865 287.096 193.771C287.096 194.168 287.228 194.478 287.492 194.701C287.757 194.924 288.096 195.036 288.511 195.036ZM301.097 196C301.024 195.854 300.965 195.594 300.92 195.221C300.332 195.831 299.63 196.137 298.814 196.137C298.085 196.137 297.486 195.932 297.016 195.521C296.551 195.107 296.319 194.583 296.319 193.949C296.319 193.179 296.611 192.582 297.194 192.158C297.782 191.73 298.607 191.516 299.669 191.516H300.899V190.935C300.899 190.493 300.767 190.142 300.503 189.882C300.238 189.618 299.849 189.485 299.334 189.485C298.882 189.485 298.504 189.599 298.199 189.827C297.893 190.055 297.741 190.331 297.741 190.654H296.469C296.469 190.285 296.599 189.93 296.859 189.588C297.123 189.242 297.479 188.968 297.925 188.768C298.377 188.567 298.871 188.467 299.409 188.467C300.261 188.467 300.929 188.681 301.412 189.109C301.895 189.533 302.145 190.119 302.164 190.866V194.271C302.164 194.95 302.25 195.49 302.423 195.891V196H301.097ZM298.999 195.036C299.395 195.036 299.771 194.934 300.127 194.729C300.482 194.523 300.74 194.257 300.899 193.929V192.411H299.908C298.358 192.411 297.584 192.865 297.584 193.771C297.584 194.168 297.716 194.478 297.98 194.701C298.244 194.924 298.584 195.036 298.999 195.036ZM303.545 192.24C303.545 191.087 303.812 190.171 304.345 189.492C304.878 188.809 305.585 188.467 306.464 188.467C307.367 188.467 308.071 188.786 308.577 189.424L308.638 188.604H309.793V195.822C309.793 196.779 309.509 197.534 308.939 198.085C308.374 198.636 307.613 198.912 306.656 198.912C306.122 198.912 305.601 198.798 305.09 198.57C304.58 198.342 304.19 198.03 303.921 197.634L304.578 196.875C305.12 197.545 305.783 197.88 306.567 197.88C307.182 197.88 307.661 197.707 308.002 197.36C308.349 197.014 308.522 196.526 308.522 195.897V195.262C308.016 195.845 307.326 196.137 306.451 196.137C305.585 196.137 304.883 195.788 304.345 195.091C303.812 194.394 303.545 193.443 303.545 192.24ZM304.817 192.384C304.817 193.218 304.988 193.874 305.329 194.353C305.671 194.826 306.15 195.063 306.765 195.063C307.563 195.063 308.148 194.701 308.522 193.977V190.6C308.135 189.893 307.553 189.54 306.779 189.54C306.163 189.54 305.683 189.779 305.336 190.258C304.99 190.736 304.817 191.445 304.817 192.384ZM315.974 196C315.901 195.854 315.842 195.594 315.796 195.221C315.208 195.831 314.506 196.137 313.691 196.137C312.961 196.137 312.362 195.932 311.893 195.521C311.428 195.107 311.196 194.583 311.196 193.949C311.196 193.179 311.487 192.582 312.071 192.158C312.658 191.73 313.483 191.516 314.545 191.516H315.776V190.935C315.776 190.493 315.643 190.142 315.379 189.882C315.115 189.618 314.725 189.485 314.21 189.485C313.759 189.485 313.381 189.599 313.075 189.827C312.77 190.055 312.617 190.331 312.617 190.654H311.346C311.346 190.285 311.476 189.93 311.736 189.588C312 189.242 312.355 188.968 312.802 188.768C313.253 188.567 313.748 188.467 314.285 188.467C315.138 188.467 315.805 188.681 316.288 189.109C316.771 189.533 317.022 190.119 317.04 190.866V194.271C317.04 194.95 317.127 195.49 317.3 195.891V196H315.974ZM313.875 195.036C314.272 195.036 314.648 194.934 315.003 194.729C315.359 194.523 315.616 194.257 315.776 193.929V192.411H314.784C313.235 192.411 312.46 192.865 312.46 193.771C312.46 194.168 312.592 194.478 312.857 194.701C313.121 194.924 313.46 195.036 313.875 195.036ZM322.298 189.738C322.106 189.706 321.899 189.69 321.676 189.69C320.846 189.69 320.284 190.044 319.987 190.75V196H318.723V188.604H319.953L319.974 189.458C320.388 188.797 320.976 188.467 321.737 188.467C321.983 188.467 322.17 188.499 322.298 188.562V189.738ZM326.032 192.24C326.032 191.105 326.301 190.194 326.838 189.506C327.376 188.813 328.08 188.467 328.951 188.467C329.817 188.467 330.503 188.763 331.008 189.355V185.5H332.273V196H331.111L331.049 195.207C330.544 195.827 329.839 196.137 328.937 196.137C328.08 196.137 327.381 195.786 326.838 195.084C326.301 194.382 326.032 193.466 326.032 192.336V192.24ZM327.296 192.384C327.296 193.222 327.47 193.879 327.816 194.353C328.162 194.826 328.641 195.063 329.252 195.063C330.054 195.063 330.639 194.703 331.008 193.983V190.586C330.63 189.889 330.049 189.54 329.265 189.54C328.645 189.54 328.162 189.779 327.816 190.258C327.47 190.736 327.296 191.445 327.296 192.384ZM338.508 196C338.435 195.854 338.376 195.594 338.33 195.221C337.743 195.831 337.041 196.137 336.225 196.137C335.496 196.137 334.897 195.932 334.427 195.521C333.962 195.107 333.73 194.583 333.73 193.949C333.73 193.179 334.022 192.582 334.605 192.158C335.193 191.73 336.018 191.516 337.079 191.516H338.31V190.935C338.31 190.493 338.178 190.142 337.913 189.882C337.649 189.618 337.26 189.485 336.745 189.485C336.293 189.485 335.915 189.599 335.61 189.827C335.304 190.055 335.152 190.331 335.152 190.654H333.88C333.88 190.285 334.01 189.93 334.27 189.588C334.534 189.242 334.89 188.968 335.336 188.768C335.788 188.567 336.282 188.467 336.82 188.467C337.672 188.467 338.34 188.681 338.823 189.109C339.306 189.533 339.556 190.119 339.575 190.866V194.271C339.575 194.95 339.661 195.49 339.834 195.891V196H338.508ZM336.41 195.036C336.806 195.036 337.182 194.934 337.538 194.729C337.893 194.523 338.15 194.257 338.31 193.929V192.411H337.319C335.769 192.411 334.995 192.865 334.995 193.771C334.995 194.168 335.127 194.478 335.391 194.701C335.655 194.924 335.995 195.036 336.41 195.036ZM347.505 192.384C347.505 193.509 347.248 194.416 346.733 195.104C346.218 195.793 345.52 196.137 344.641 196.137C343.743 196.137 343.037 195.852 342.522 195.282V198.844H341.257V188.604H342.412L342.474 189.424C342.989 188.786 343.704 188.467 344.62 188.467C345.509 188.467 346.211 188.802 346.726 189.472C347.245 190.142 347.505 191.074 347.505 192.268V192.384ZM346.24 192.24C346.24 191.406 346.063 190.748 345.707 190.265C345.352 189.782 344.864 189.54 344.244 189.54C343.479 189.54 342.904 189.88 342.522 190.559V194.093C342.9 194.767 343.479 195.104 344.258 195.104C344.864 195.104 345.345 194.865 345.7 194.387C346.06 193.904 346.24 193.188 346.24 192.24ZM353.385 196C353.312 195.854 353.253 195.594 353.207 195.221C352.619 195.831 351.917 196.137 351.102 196.137C350.372 196.137 349.773 195.932 349.304 195.521C348.839 195.107 348.606 194.583 348.606 193.949C348.606 193.179 348.898 192.582 349.481 192.158C350.069 191.73 350.894 191.516 351.956 191.516H353.187V190.935C353.187 190.493 353.054 190.142 352.79 189.882C352.526 189.618 352.136 189.485 351.621 189.485C351.17 189.485 350.792 189.599 350.486 189.827C350.181 190.055 350.028 190.331 350.028 190.654H348.757C348.757 190.285 348.887 189.93 349.146 189.588C349.411 189.242 349.766 188.968 350.213 188.768C350.664 188.567 351.159 188.467 351.696 188.467C352.549 188.467 353.216 188.681 353.699 189.109C354.182 189.533 354.433 190.119 354.451 190.866V194.271C354.451 194.95 354.538 195.49 354.711 195.891V196H353.385ZM351.286 195.036C351.683 195.036 352.059 194.934 352.414 194.729C352.77 194.523 353.027 194.257 353.187 193.929V192.411H352.195C350.646 192.411 349.871 192.865 349.871 193.771C349.871 194.168 350.003 194.478 350.268 194.701C350.532 194.924 350.871 195.036 351.286 195.036ZM357.849 186.812V188.604H359.23V189.581H357.849V194.168C357.849 194.464 357.911 194.688 358.034 194.838C358.157 194.984 358.367 195.057 358.663 195.057C358.809 195.057 359.009 195.029 359.264 194.975V196C358.932 196.091 358.608 196.137 358.294 196.137C357.729 196.137 357.303 195.966 357.015 195.624C356.728 195.282 356.585 194.797 356.585 194.168V189.581H355.238V188.604H356.585V186.812H357.849ZM137.219 214.384C137.219 215.514 136.959 216.423 136.439 217.111C135.92 217.795 135.223 218.137 134.348 218.137C133.413 218.137 132.691 217.806 132.181 217.146L132.119 218H130.957V207.5H132.222V211.417C132.732 210.784 133.436 210.467 134.334 210.467C135.232 210.467 135.936 210.806 136.446 211.485C136.961 212.164 137.219 213.094 137.219 214.274V214.384ZM135.954 214.24C135.954 213.379 135.788 212.714 135.455 212.244C135.122 211.775 134.644 211.54 134.02 211.54C133.186 211.54 132.586 211.927 132.222 212.702V215.901C132.609 216.676 133.213 217.063 134.033 217.063C134.639 217.063 135.111 216.829 135.448 216.359C135.785 215.89 135.954 215.184 135.954 214.24ZM141.588 218.137C140.585 218.137 139.769 217.809 139.14 217.152C138.512 216.492 138.197 215.61 138.197 214.507V214.274C138.197 213.541 138.336 212.887 138.614 212.312C138.897 211.734 139.289 211.283 139.79 210.959C140.296 210.631 140.843 210.467 141.43 210.467C142.392 210.467 143.139 210.784 143.673 211.417C144.206 212.05 144.472 212.957 144.472 214.138V214.664H139.462C139.48 215.393 139.692 215.983 140.097 216.435C140.508 216.881 141.027 217.104 141.656 217.104C142.103 217.104 142.481 217.013 142.791 216.831C143.101 216.649 143.372 216.407 143.604 216.106L144.377 216.708C143.757 217.66 142.827 218.137 141.588 218.137ZM141.43 211.506C140.92 211.506 140.492 211.693 140.145 212.066C139.799 212.436 139.585 212.955 139.503 213.625H143.208V213.529C143.171 212.887 142.998 212.39 142.688 212.039C142.378 211.684 141.959 211.506 141.43 211.506ZM149.217 211.738C149.026 211.706 148.819 211.69 148.595 211.69C147.766 211.69 147.203 212.044 146.907 212.75V218H145.642V210.604H146.873L146.893 211.458C147.308 210.797 147.896 210.467 148.657 210.467C148.903 210.467 149.09 210.499 149.217 210.562V211.738ZM156.348 214.384C156.348 215.514 156.088 216.423 155.569 217.111C155.049 217.795 154.352 218.137 153.477 218.137C152.543 218.137 151.82 217.806 151.31 217.146L151.248 218H150.086V207.5H151.351V211.417C151.861 210.784 152.565 210.467 153.463 210.467C154.361 210.467 155.065 210.806 155.576 211.485C156.091 212.164 156.348 213.094 156.348 214.274V214.384ZM155.083 214.24C155.083 213.379 154.917 212.714 154.584 212.244C154.252 211.775 153.773 211.54 153.149 211.54C152.315 211.54 151.716 211.927 151.351 212.702V215.901C151.738 216.676 152.342 217.063 153.163 217.063C153.769 217.063 154.24 216.829 154.578 216.359C154.915 215.89 155.083 215.184 155.083 214.24ZM159.022 218H157.757V210.604H159.022V218ZM157.654 208.642C157.654 208.437 157.716 208.263 157.839 208.122C157.967 207.981 158.154 207.91 158.4 207.91C158.646 207.91 158.833 207.981 158.96 208.122C159.088 208.263 159.152 208.437 159.152 208.642C159.152 208.847 159.088 209.018 158.96 209.154C158.833 209.291 158.646 209.359 158.4 209.359C158.154 209.359 157.967 209.291 157.839 209.154C157.716 209.018 157.654 208.847 157.654 208.642ZM161.948 210.604L161.989 211.533C162.554 210.822 163.293 210.467 164.204 210.467C165.767 210.467 166.556 211.349 166.569 213.112V218H165.305V213.105C165.3 212.572 165.177 212.178 164.936 211.923C164.699 211.668 164.327 211.54 163.821 211.54C163.411 211.54 163.051 211.649 162.741 211.868C162.431 212.087 162.19 212.374 162.017 212.729V218H160.752V210.604H161.948ZM169.551 218H168.286V210.604H169.551V218ZM168.183 208.642C168.183 208.437 168.245 208.263 168.368 208.122C168.496 207.981 168.682 207.91 168.929 207.91C169.175 207.91 169.361 207.981 169.489 208.122C169.617 208.263 169.68 208.437 169.68 208.642C169.68 208.847 169.617 209.018 169.489 209.154C169.361 209.291 169.175 209.359 168.929 209.359C168.682 209.359 168.496 209.291 168.368 209.154C168.245 209.018 168.183 208.847 168.183 208.642ZM175.588 216.038C175.588 215.696 175.458 215.432 175.198 215.245C174.943 215.054 174.494 214.89 173.851 214.753C173.213 214.616 172.705 214.452 172.327 214.261C171.953 214.069 171.675 213.841 171.493 213.577C171.315 213.313 171.226 212.998 171.226 212.634C171.226 212.028 171.481 211.515 171.992 211.096C172.507 210.676 173.163 210.467 173.961 210.467C174.799 210.467 175.478 210.683 175.998 211.116C176.522 211.549 176.784 212.103 176.784 212.777H175.512C175.512 212.431 175.364 212.132 175.068 211.882C174.776 211.631 174.407 211.506 173.961 211.506C173.5 211.506 173.14 211.606 172.88 211.807C172.621 212.007 172.491 212.269 172.491 212.593C172.491 212.898 172.612 213.128 172.853 213.283C173.095 213.438 173.53 213.586 174.159 213.728C174.792 213.869 175.305 214.037 175.697 214.233C176.089 214.429 176.378 214.666 176.565 214.944C176.756 215.218 176.852 215.553 176.852 215.949C176.852 216.61 176.588 217.141 176.059 217.542C175.531 217.938 174.845 218.137 174.002 218.137C173.409 218.137 172.885 218.032 172.429 217.822C171.974 217.613 171.616 217.321 171.356 216.947C171.101 216.569 170.973 216.161 170.973 215.724H172.238C172.261 216.147 172.429 216.485 172.744 216.735C173.063 216.981 173.482 217.104 174.002 217.104C174.48 217.104 174.863 217.009 175.15 216.817C175.442 216.621 175.588 216.362 175.588 216.038ZM181.065 214.24C181.065 213.105 181.334 212.194 181.871 211.506C182.409 210.813 183.113 210.467 183.984 210.467C184.849 210.467 185.535 210.763 186.041 211.355V207.5H187.306V218H186.144L186.082 217.207C185.576 217.827 184.872 218.137 183.97 218.137C183.113 218.137 182.414 217.786 181.871 217.084C181.334 216.382 181.065 215.466 181.065 214.336V214.24ZM182.329 214.384C182.329 215.222 182.502 215.879 182.849 216.353C183.195 216.826 183.674 217.063 184.284 217.063C185.086 217.063 185.672 216.703 186.041 215.983V212.586C185.663 211.889 185.082 211.54 184.298 211.54C183.678 211.54 183.195 211.779 182.849 212.258C182.502 212.736 182.329 213.445 182.329 214.384ZM190.349 218H189.084V210.604H190.349V218ZM188.981 208.642C188.981 208.437 189.043 208.263 189.166 208.122C189.294 207.981 189.48 207.91 189.727 207.91C189.973 207.91 190.16 207.981 190.287 208.122C190.415 208.263 190.479 208.437 190.479 208.642C190.479 208.847 190.415 209.018 190.287 209.154C190.16 209.291 189.973 209.359 189.727 209.359C189.48 209.359 189.294 209.291 189.166 209.154C189.043 209.018 188.981 208.847 188.981 208.642ZM199.558 216.038C199.558 215.696 199.428 215.432 199.169 215.245C198.913 215.054 198.464 214.89 197.822 214.753C197.184 214.616 196.676 214.452 196.297 214.261C195.924 214.069 195.646 213.841 195.463 213.577C195.286 213.313 195.197 212.998 195.197 212.634C195.197 212.028 195.452 211.515 195.963 211.096C196.477 210.676 197.134 210.467 197.931 210.467C198.77 210.467 199.449 210.683 199.968 211.116C200.492 211.549 200.754 212.103 200.754 212.777H199.483C199.483 212.431 199.335 212.132 199.039 211.882C198.747 211.631 198.378 211.506 197.931 211.506C197.471 211.506 197.111 211.606 196.851 211.807C196.591 212.007 196.462 212.269 196.462 212.593C196.462 212.898 196.582 213.128 196.824 213.283C197.065 213.438 197.501 213.586 198.129 213.728C198.763 213.869 199.276 214.037 199.668 214.233C200.06 214.429 200.349 214.666 200.536 214.944C200.727 215.218 200.823 215.553 200.823 215.949C200.823 216.61 200.559 217.141 200.03 217.542C199.501 217.938 198.815 218.137 197.972 218.137C197.38 218.137 196.856 218.032 196.4 217.822C195.944 217.613 195.587 217.321 195.327 216.947C195.072 216.569 194.944 216.161 194.944 215.724H196.209C196.231 216.147 196.4 216.485 196.714 216.735C197.033 216.981 197.453 217.104 197.972 217.104C198.451 217.104 198.834 217.009 199.121 216.817C199.412 216.621 199.558 216.362 199.558 216.038ZM205.24 218.137C204.237 218.137 203.421 217.809 202.792 217.152C202.163 216.492 201.849 215.61 201.849 214.507V214.274C201.849 213.541 201.988 212.887 202.266 212.312C202.549 211.734 202.94 211.283 203.442 210.959C203.948 210.631 204.495 210.467 205.082 210.467C206.044 210.467 206.791 210.784 207.325 211.417C207.858 212.05 208.124 212.957 208.124 214.138V214.664H203.114C203.132 215.393 203.344 215.983 203.749 216.435C204.16 216.881 204.679 217.104 205.308 217.104C205.755 217.104 206.133 217.013 206.443 216.831C206.753 216.649 207.024 216.407 207.256 216.106L208.029 216.708C207.409 217.66 206.479 218.137 205.24 218.137ZM205.082 211.506C204.572 211.506 204.144 211.693 203.797 212.066C203.451 212.436 203.237 212.955 203.155 213.625H206.86V213.529C206.823 212.887 206.65 212.39 206.34 212.039C206.03 211.684 205.611 211.506 205.082 211.506ZM211.359 214.575L210.566 215.402V218H209.301V207.5H210.566V213.851L211.242 213.037L213.546 210.604H215.084L212.206 213.693L215.419 218H213.936L211.359 214.575ZM217.806 208.812V210.604H219.187V211.581H217.806V216.168C217.806 216.464 217.867 216.688 217.99 216.838C218.113 216.984 218.323 217.057 218.619 217.057C218.765 217.057 218.965 217.029 219.221 216.975V218C218.888 218.091 218.564 218.137 218.25 218.137C217.685 218.137 217.259 217.966 216.972 217.624C216.685 217.282 216.541 216.797 216.541 216.168V211.581H215.194V210.604H216.541V208.812H217.806ZM219.898 214.233C219.898 213.509 220.04 212.857 220.322 212.278C220.609 211.7 221.006 211.253 221.512 210.938C222.022 210.624 222.603 210.467 223.255 210.467C224.262 210.467 225.075 210.815 225.695 211.513C226.319 212.21 226.632 213.137 226.632 214.295V214.384C226.632 215.104 226.493 215.751 226.215 216.325C225.941 216.895 225.547 217.339 225.032 217.658C224.522 217.977 223.934 218.137 223.268 218.137C222.266 218.137 221.452 217.788 220.828 217.091C220.208 216.394 219.898 215.471 219.898 214.322V214.233ZM221.17 214.384C221.17 215.204 221.359 215.863 221.737 216.359C222.12 216.856 222.63 217.104 223.268 217.104C223.911 217.104 224.421 216.854 224.8 216.353C225.178 215.847 225.367 215.14 225.367 214.233C225.367 213.422 225.173 212.766 224.786 212.265C224.403 211.759 223.893 211.506 223.255 211.506C222.63 211.506 222.127 211.754 221.744 212.251C221.361 212.748 221.17 213.459 221.17 214.384ZM231.493 211.738C231.301 211.706 231.094 211.69 230.871 211.69C230.041 211.69 229.478 212.044 229.182 212.75V218H227.918V210.604H229.148L229.169 211.458C229.583 210.797 230.171 210.467 230.932 210.467C231.178 210.467 231.365 210.499 231.493 210.562V211.738ZM236.908 218H235.644V210.604H236.908V218ZM235.541 208.642C235.541 208.437 235.603 208.263 235.726 208.122C235.853 207.981 236.04 207.91 236.286 207.91C236.532 207.91 236.719 207.981 236.847 208.122C236.974 208.263 237.038 208.437 237.038 208.642C237.038 208.847 236.974 209.018 236.847 209.154C236.719 209.291 236.532 209.359 236.286 209.359C236.04 209.359 235.853 209.291 235.726 209.154C235.603 209.018 235.541 208.847 235.541 208.642ZM239.835 210.604L239.876 211.533C240.441 210.822 241.179 210.467 242.091 210.467C243.654 210.467 244.442 211.349 244.456 213.112V218H243.191V213.105C243.187 212.572 243.064 212.178 242.822 211.923C242.585 211.668 242.214 211.54 241.708 211.54C241.298 211.54 240.938 211.649 240.628 211.868C240.318 212.087 240.076 212.374 239.903 212.729V218H238.639V210.604H239.835ZM247.437 218H246.173V210.604H247.437V218ZM246.07 208.642C246.07 208.437 246.132 208.263 246.255 208.122C246.382 207.981 246.569 207.91 246.815 207.91C247.061 207.91 247.248 207.981 247.376 208.122C247.503 208.263 247.567 208.437 247.567 208.642C247.567 208.847 247.503 209.018 247.376 209.154C247.248 209.291 247.061 209.359 246.815 209.359C246.569 209.359 246.382 209.291 246.255 209.154C246.132 209.018 246.07 208.847 246.07 208.642ZM252.292 213.96C252.292 212.93 252.429 211.941 252.703 210.993C252.981 210.045 253.393 209.184 253.94 208.409C254.487 207.634 255.054 207.088 255.642 206.769L255.902 207.603C255.236 208.113 254.69 208.892 254.261 209.94C253.837 210.989 253.605 212.162 253.564 213.461L253.557 214.042C253.557 215.801 253.878 217.328 254.521 218.622C254.908 219.397 255.369 220.003 255.902 220.44L255.642 221.213C255.036 220.876 254.457 220.311 253.906 219.518C252.83 217.968 252.292 216.116 252.292 213.96ZM264.673 218H263.354V213.399H258.336V218H257.024V208.047H258.336V212.326H263.354V208.047H264.673V218ZM269.575 218.137C268.573 218.137 267.757 217.809 267.128 217.152C266.499 216.492 266.185 215.61 266.185 214.507V214.274C266.185 213.541 266.324 212.887 266.602 212.312C266.884 211.734 267.276 211.283 267.777 210.959C268.283 210.631 268.83 210.467 269.418 210.467C270.38 210.467 271.127 210.784 271.66 211.417C272.193 212.05 272.46 212.957 272.46 214.138V214.664H267.449C267.467 215.393 267.679 215.983 268.085 216.435C268.495 216.881 269.015 217.104 269.644 217.104C270.09 217.104 270.468 217.013 270.778 216.831C271.088 216.649 271.359 216.407 271.592 216.106L272.364 216.708C271.744 217.66 270.815 218.137 269.575 218.137ZM269.418 211.506C268.908 211.506 268.479 211.693 268.133 212.066C267.786 212.436 267.572 212.955 267.49 213.625H271.195V213.529C271.159 212.887 270.986 212.39 270.676 212.039C270.366 211.684 269.947 211.506 269.418 211.506ZM278.196 218C278.123 217.854 278.064 217.594 278.018 217.221C277.43 217.831 276.729 218.137 275.913 218.137C275.184 218.137 274.584 217.932 274.115 217.521C273.65 217.107 273.418 216.583 273.418 215.949C273.418 215.179 273.709 214.582 274.293 214.158C274.881 213.73 275.706 213.516 276.767 213.516H277.998V212.935C277.998 212.493 277.866 212.142 277.601 211.882C277.337 211.618 276.947 211.485 276.432 211.485C275.981 211.485 275.603 211.599 275.298 211.827C274.992 212.055 274.84 212.331 274.84 212.654H273.568C273.568 212.285 273.698 211.93 273.958 211.588C274.222 211.242 274.578 210.968 275.024 210.768C275.475 210.567 275.97 210.467 276.508 210.467C277.36 210.467 278.027 210.681 278.511 211.109C278.994 211.533 279.244 212.119 279.262 212.866V216.271C279.262 216.95 279.349 217.49 279.522 217.891V218H278.196ZM276.097 217.036C276.494 217.036 276.87 216.934 277.225 216.729C277.581 216.523 277.838 216.257 277.998 215.929V214.411H277.007C275.457 214.411 274.682 214.865 274.682 215.771C274.682 216.168 274.815 216.478 275.079 216.701C275.343 216.924 275.683 217.036 276.097 217.036ZM282.319 218H281.054V207.5H282.319V218ZM285.765 208.812V210.604H287.146V211.581H285.765V216.168C285.765 216.464 285.827 216.688 285.95 216.838C286.073 216.984 286.282 217.057 286.579 217.057C286.724 217.057 286.925 217.029 287.18 216.975V218C286.847 218.091 286.524 218.137 286.209 218.137C285.644 218.137 285.218 217.966 284.931 217.624C284.644 217.282 284.5 216.797 284.5 216.168V211.581H283.154V210.604H284.5V208.812H285.765ZM289.594 211.499C290.154 210.811 290.884 210.467 291.781 210.467C293.345 210.467 294.133 211.349 294.147 213.112V218H292.882V213.105C292.877 212.572 292.754 212.178 292.513 211.923C292.276 211.668 291.904 211.54 291.399 211.54C290.988 211.54 290.628 211.649 290.319 211.868C290.009 212.087 289.767 212.374 289.594 212.729V218H288.329V207.5H289.594V211.499ZM298.16 216.147L299.883 210.604H301.236L298.263 219.142C297.802 220.372 297.071 220.987 296.068 220.987L295.829 220.967L295.357 220.878V219.853L295.699 219.88C296.128 219.88 296.46 219.793 296.697 219.62C296.939 219.447 297.137 219.13 297.292 218.67L297.572 217.918L294.934 210.604H296.314L298.16 216.147ZM305.442 218V208.047H308.696C309.776 208.047 310.587 208.27 311.129 208.717C311.676 209.163 311.95 209.824 311.95 210.699C311.95 211.164 311.818 211.576 311.553 211.937C311.289 212.292 310.929 212.568 310.473 212.764C311.011 212.914 311.435 213.201 311.745 213.625C312.059 214.044 312.216 214.546 312.216 215.129C312.216 216.022 311.927 216.724 311.348 217.234C310.769 217.745 309.951 218 308.894 218H305.442ZM306.754 213.345V216.927H308.921C309.532 216.927 310.013 216.77 310.364 216.455C310.719 216.136 310.897 215.699 310.897 215.143C310.897 213.944 310.245 213.345 308.942 213.345H306.754ZM306.754 212.292H308.737C309.311 212.292 309.769 212.148 310.111 211.861C310.457 211.574 310.63 211.185 310.63 210.692C310.63 210.146 310.471 209.749 310.152 209.503C309.833 209.252 309.348 209.127 308.696 209.127H306.754V212.292ZM316.736 218.137C315.733 218.137 314.917 217.809 314.288 217.152C313.66 216.492 313.345 215.61 313.345 214.507V214.274C313.345 213.541 313.484 212.887 313.762 212.312C314.045 211.734 314.437 211.283 314.938 210.959C315.444 210.631 315.991 210.467 316.579 210.467C317.54 210.467 318.288 210.784 318.821 211.417C319.354 212.05 319.621 212.957 319.621 214.138V214.664H314.61C314.628 215.393 314.84 215.983 315.246 216.435C315.656 216.881 316.175 217.104 316.804 217.104C317.251 217.104 317.629 217.013 317.939 216.831C318.249 216.649 318.52 216.407 318.752 216.106L319.525 216.708C318.905 217.66 317.975 218.137 316.736 218.137ZM316.579 211.506C316.068 211.506 315.64 211.693 315.293 212.066C314.947 212.436 314.733 212.955 314.651 213.625H318.356V213.529C318.319 212.887 318.146 212.39 317.836 212.039C317.526 211.684 317.107 211.506 316.579 211.506ZM325.357 218C325.284 217.854 325.224 217.594 325.179 217.221C324.591 217.831 323.889 218.137 323.073 218.137C322.344 218.137 321.745 217.932 321.276 217.521C320.811 217.107 320.578 216.583 320.578 215.949C320.578 215.179 320.87 214.582 321.453 214.158C322.041 213.73 322.866 213.516 323.928 213.516H325.158V212.935C325.158 212.493 325.026 212.142 324.762 211.882C324.498 211.618 324.108 211.485 323.593 211.485C323.142 211.485 322.764 211.599 322.458 211.827C322.153 212.055 322 212.331 322 212.654H320.729C320.729 212.285 320.859 211.93 321.118 211.588C321.383 211.242 321.738 210.968 322.185 210.768C322.636 210.567 323.13 210.467 323.668 210.467C324.52 210.467 325.188 210.681 325.671 211.109C326.154 211.533 326.405 212.119 326.423 212.866V216.271C326.423 216.95 326.51 217.49 326.683 217.891V218H325.357ZM323.258 217.036C323.654 217.036 324.03 216.934 324.386 216.729C324.741 216.523 324.999 216.257 325.158 215.929V214.411H324.167C322.618 214.411 321.843 214.865 321.843 215.771C321.843 216.168 321.975 216.478 322.239 216.701C322.504 216.924 322.843 217.036 323.258 217.036ZM332.672 217.269C332.18 217.847 331.457 218.137 330.505 218.137C329.716 218.137 329.115 217.909 328.7 217.453C328.29 216.993 328.083 216.314 328.078 215.416V210.604H329.343V215.382C329.343 216.503 329.799 217.063 330.71 217.063C331.676 217.063 332.319 216.703 332.638 215.983V210.604H333.902V218H332.699L332.672 217.269ZM337.246 208.812V210.604H338.627V211.581H337.246V216.168C337.246 216.464 337.307 216.688 337.43 216.838C337.554 216.984 337.763 217.057 338.059 217.057C338.205 217.057 338.406 217.029 338.661 216.975V218C338.328 218.091 338.005 218.137 337.69 218.137C337.125 218.137 336.699 217.966 336.412 217.624C336.125 217.282 335.981 216.797 335.981 216.168V211.581H334.635V210.604H335.981V208.812H337.246ZM342.23 216.147L343.953 210.604H345.306L342.333 219.142C341.872 220.372 341.141 220.987 340.138 220.987L339.899 220.967L339.427 220.878V219.853L339.769 219.88C340.198 219.88 340.53 219.793 340.767 219.62C341.009 219.447 341.207 219.13 341.362 218.67L341.642 217.918L339.004 210.604H340.384L342.23 216.147ZM349.06 214.028C349.06 215.045 348.926 216.02 348.657 216.954C348.392 217.884 347.984 218.743 347.433 219.531C346.886 220.32 346.312 220.88 345.71 221.213L345.444 220.44C346.146 219.903 346.708 219.069 347.132 217.938C347.561 216.804 347.779 215.546 347.788 214.165V213.946C347.788 212.989 347.688 212.101 347.488 211.28C347.287 210.455 347.007 209.717 346.647 209.065C346.291 208.414 345.89 207.906 345.444 207.541L345.71 206.769C346.312 207.101 346.884 207.657 347.426 208.437C347.973 209.216 348.381 210.075 348.65 211.014C348.923 211.952 349.06 212.957 349.06 214.028Z" fill="white"/>
<path opacity="0.4" d="M133.76 246.599C133.76 246.354 133.667 246.166 133.481 246.032C133.299 245.896 132.979 245.778 132.52 245.681C132.064 245.583 131.701 245.466 131.431 245.329C131.164 245.192 130.965 245.03 130.835 244.841C130.708 244.652 130.645 244.427 130.645 244.167C130.645 243.734 130.827 243.368 131.191 243.068C131.559 242.769 132.028 242.619 132.598 242.619C133.197 242.619 133.682 242.774 134.053 243.083C134.427 243.392 134.614 243.788 134.614 244.27H133.706C133.706 244.022 133.6 243.809 133.389 243.63C133.18 243.451 132.917 243.361 132.598 243.361C132.269 243.361 132.012 243.433 131.826 243.576C131.641 243.719 131.548 243.907 131.548 244.138C131.548 244.356 131.634 244.52 131.807 244.631C131.979 244.742 132.29 244.847 132.739 244.948C133.192 245.049 133.558 245.17 133.838 245.31C134.118 245.45 134.325 245.619 134.458 245.817C134.595 246.013 134.663 246.252 134.663 246.535C134.663 247.007 134.474 247.386 134.097 247.673C133.719 247.956 133.229 248.098 132.627 248.098C132.204 248.098 131.829 248.023 131.504 247.873C131.178 247.723 130.923 247.515 130.737 247.248C130.555 246.978 130.464 246.687 130.464 246.374H131.367C131.383 246.677 131.504 246.918 131.729 247.097C131.956 247.272 132.256 247.36 132.627 247.36C132.969 247.36 133.242 247.292 133.447 247.155C133.656 247.015 133.76 246.83 133.76 246.599ZM135.301 245.31C135.301 244.792 135.401 244.326 135.603 243.913C135.808 243.5 136.092 243.181 136.453 242.956C136.818 242.731 137.233 242.619 137.698 242.619C138.417 242.619 138.999 242.868 139.441 243.366C139.887 243.864 140.11 244.527 140.11 245.354V245.417C140.11 245.931 140.011 246.394 139.812 246.804C139.617 247.211 139.335 247.528 138.968 247.756C138.603 247.984 138.183 248.098 137.708 248.098C136.992 248.098 136.411 247.849 135.965 247.351C135.522 246.853 135.301 246.193 135.301 245.373V245.31ZM136.209 245.417C136.209 246.003 136.344 246.473 136.614 246.828C136.887 247.183 137.252 247.36 137.708 247.36C138.167 247.36 138.531 247.181 138.802 246.823C139.072 246.462 139.207 245.957 139.207 245.31C139.207 244.73 139.068 244.261 138.792 243.903C138.518 243.542 138.154 243.361 137.698 243.361C137.252 243.361 136.892 243.539 136.619 243.894C136.346 244.248 136.209 244.756 136.209 245.417ZM144.205 247.478C143.853 247.891 143.337 248.098 142.657 248.098C142.094 248.098 141.664 247.935 141.368 247.609C141.075 247.281 140.927 246.796 140.923 246.154V242.717H141.827V246.13C141.827 246.931 142.152 247.331 142.803 247.331C143.493 247.331 143.952 247.074 144.18 246.56V242.717H145.084V248H144.224L144.205 247.478ZM148.714 243.527C148.578 243.505 148.429 243.493 148.27 243.493C147.677 243.493 147.275 243.745 147.064 244.25V248H146.161V242.717H147.039L147.054 243.327C147.35 242.855 147.77 242.619 148.314 242.619C148.49 242.619 148.623 242.642 148.714 242.688V243.527ZM151.271 247.36C151.593 247.36 151.875 247.263 152.115 247.067C152.356 246.872 152.49 246.628 152.516 246.335H153.37C153.354 246.638 153.25 246.926 153.058 247.199C152.866 247.473 152.609 247.691 152.286 247.854C151.967 248.016 151.629 248.098 151.271 248.098C150.551 248.098 149.978 247.858 149.552 247.38C149.129 246.898 148.917 246.241 148.917 245.407V245.256C148.917 244.742 149.012 244.284 149.2 243.884C149.389 243.483 149.659 243.173 150.011 242.951C150.366 242.73 150.784 242.619 151.266 242.619C151.858 242.619 152.35 242.797 152.74 243.151C153.134 243.506 153.344 243.967 153.37 244.533H152.516C152.49 244.191 152.36 243.911 152.125 243.693C151.894 243.472 151.608 243.361 151.266 243.361C150.807 243.361 150.45 243.527 150.196 243.859C149.946 244.188 149.821 244.665 149.821 245.29V245.461C149.821 246.07 149.946 246.538 150.196 246.867C150.447 247.196 150.805 247.36 151.271 247.36ZM156.278 248.098C155.562 248.098 154.979 247.863 154.53 247.395C154.081 246.923 153.856 246.293 153.856 245.505V245.339C153.856 244.815 153.956 244.348 154.154 243.938C154.356 243.524 154.636 243.202 154.994 242.971C155.355 242.736 155.746 242.619 156.166 242.619C156.853 242.619 157.387 242.845 157.768 243.298C158.148 243.75 158.339 244.398 158.339 245.241V245.617H154.76C154.773 246.138 154.924 246.56 155.214 246.882C155.507 247.201 155.878 247.36 156.327 247.36C156.646 247.36 156.916 247.295 157.138 247.165C157.359 247.035 157.553 246.862 157.719 246.647L158.271 247.077C157.828 247.757 157.164 248.098 156.278 248.098ZM156.166 243.361C155.801 243.361 155.495 243.495 155.248 243.762C155.001 244.025 154.848 244.396 154.789 244.875H157.436V244.807C157.41 244.348 157.286 243.993 157.064 243.742C156.843 243.488 156.544 243.361 156.166 243.361ZM162.251 248H161.347V242.717H162.251V248ZM161.274 241.315C161.274 241.169 161.318 241.045 161.406 240.944C161.497 240.843 161.63 240.793 161.806 240.793C161.982 240.793 162.115 240.843 162.207 240.944C162.298 241.045 162.343 241.169 162.343 241.315C162.343 241.462 162.298 241.584 162.207 241.682C162.115 241.779 161.982 241.828 161.806 241.828C161.63 241.828 161.497 241.779 161.406 241.682C161.318 241.584 161.274 241.462 161.274 241.315ZM164.255 242.717L164.285 243.381C164.688 242.873 165.216 242.619 165.867 242.619C166.983 242.619 167.546 243.249 167.556 244.509V248H166.653V244.504C166.649 244.123 166.562 243.841 166.389 243.659C166.22 243.477 165.954 243.386 165.593 243.386C165.3 243.386 165.043 243.464 164.822 243.62C164.6 243.776 164.428 243.981 164.304 244.235V248H163.401V242.717H164.255ZM170.362 246.774L171.67 242.717H172.593L170.698 248H170.01L168.096 242.717H169.019L170.362 246.774ZM172.845 245.31C172.845 244.792 172.946 244.326 173.147 243.913C173.353 243.5 173.636 243.181 173.997 242.956C174.362 242.731 174.777 242.619 175.242 242.619C175.962 242.619 176.543 242.868 176.985 243.366C177.431 243.864 177.654 244.527 177.654 245.354V245.417C177.654 245.931 177.555 246.394 177.356 246.804C177.161 247.211 176.88 247.528 176.512 247.756C176.147 247.984 175.727 248.098 175.252 248.098C174.536 248.098 173.955 247.849 173.509 247.351C173.066 246.853 172.845 246.193 172.845 245.373V245.31ZM173.753 245.417C173.753 246.003 173.888 246.473 174.158 246.828C174.432 247.183 174.796 247.36 175.252 247.36C175.711 247.36 176.076 247.181 176.346 246.823C176.616 246.462 176.751 245.957 176.751 245.31C176.751 244.73 176.613 244.261 176.336 243.903C176.062 243.542 175.698 243.361 175.242 243.361C174.796 243.361 174.437 243.539 174.163 243.894C173.89 244.248 173.753 244.756 173.753 245.417ZM179.469 248H178.565V240.5H179.469V248ZM182.362 246.774L183.671 242.717H184.593L182.699 248H182.01L180.096 242.717H181.019L182.362 246.774ZM187.287 248.098C186.57 248.098 185.988 247.863 185.538 247.395C185.089 246.923 184.865 246.293 184.865 245.505V245.339C184.865 244.815 184.964 244.348 185.162 243.938C185.364 243.524 185.644 243.202 186.002 242.971C186.364 242.736 186.754 242.619 187.174 242.619C187.861 242.619 188.395 242.845 188.776 243.298C189.157 243.75 189.347 244.398 189.347 245.241V245.617H185.768C185.781 246.138 185.932 246.56 186.222 246.882C186.515 247.201 186.886 247.36 187.335 247.36C187.654 247.36 187.925 247.295 188.146 247.165C188.367 247.035 188.561 246.862 188.727 246.647L189.279 247.077C188.836 247.757 188.172 248.098 187.287 248.098ZM187.174 243.361C186.81 243.361 186.504 243.495 186.256 243.762C186.009 244.025 185.856 244.396 185.797 244.875H188.444V244.807C188.418 244.348 188.294 243.993 188.073 243.742C187.851 243.488 187.552 243.361 187.174 243.361ZM190.116 247.526C190.116 247.37 190.162 247.24 190.253 247.136C190.348 247.032 190.487 246.979 190.673 246.979C190.859 246.979 190.999 247.032 191.093 247.136C191.191 247.24 191.239 247.37 191.239 247.526C191.239 247.676 191.191 247.801 191.093 247.902C190.999 248.003 190.859 248.054 190.673 248.054C190.487 248.054 190.348 248.003 190.253 247.902C190.162 247.801 190.116 247.676 190.116 247.526ZM194.553 247.36C194.875 247.36 195.157 247.263 195.397 247.067C195.638 246.872 195.772 246.628 195.798 246.335H196.652C196.636 246.638 196.532 246.926 196.34 247.199C196.148 247.473 195.891 247.691 195.568 247.854C195.249 248.016 194.911 248.098 194.553 248.098C193.833 248.098 193.26 247.858 192.834 247.38C192.411 246.898 192.199 246.241 192.199 245.407V245.256C192.199 244.742 192.294 244.284 192.482 243.884C192.671 243.483 192.941 243.173 193.293 242.951C193.648 242.73 194.066 242.619 194.548 242.619C195.14 242.619 195.632 242.797 196.022 243.151C196.416 243.506 196.626 243.967 196.652 244.533H195.798C195.772 244.191 195.642 243.911 195.407 243.693C195.176 243.472 194.89 243.361 194.548 243.361C194.089 243.361 193.732 243.527 193.479 243.859C193.228 244.188 193.103 244.665 193.103 245.29V245.461C193.103 246.07 193.228 246.538 193.479 246.867C193.729 247.196 194.087 247.36 194.553 247.36ZM199.56 248.098C198.844 248.098 198.262 247.863 197.812 247.395C197.363 246.923 197.138 246.293 197.138 245.505V245.339C197.138 244.815 197.238 244.348 197.436 243.938C197.638 243.524 197.918 243.202 198.276 242.971C198.637 242.736 199.028 242.619 199.448 242.619C200.135 242.619 200.669 242.845 201.05 243.298C201.43 243.75 201.621 244.398 201.621 245.241V245.617H198.042C198.055 246.138 198.206 246.56 198.496 246.882C198.789 247.201 199.16 247.36 199.609 247.36C199.928 247.36 200.198 247.295 200.42 247.165C200.641 247.035 200.835 246.862 201.001 246.647L201.553 247.077C201.11 247.757 200.446 248.098 199.56 248.098ZM199.448 243.361C199.083 243.361 198.777 243.495 198.53 243.762C198.283 244.025 198.13 244.396 198.071 244.875H200.718V244.807C200.692 244.348 200.568 243.993 200.346 243.742C200.125 243.488 199.826 243.361 199.448 243.361ZM207.048 246.755L208.064 242.717H208.967L207.429 248H206.697L205.413 243.996L204.163 248H203.43L201.897 242.717H202.796L203.836 246.672L205.066 242.717H205.794L207.048 246.755ZM211.783 248.098C211.066 248.098 210.484 247.863 210.035 247.395C209.585 246.923 209.361 246.293 209.361 245.505V245.339C209.361 244.815 209.46 244.348 209.659 243.938C209.86 243.524 210.14 243.202 210.498 242.971C210.86 242.736 211.25 242.619 211.67 242.619C212.357 242.619 212.891 242.845 213.272 243.298C213.653 243.75 213.843 244.398 213.843 245.241V245.617H210.264C210.277 246.138 210.428 246.56 210.718 246.882C211.011 247.201 211.382 247.36 211.831 247.36C212.15 247.36 212.421 247.295 212.642 247.165C212.863 247.035 213.057 246.862 213.223 246.647L213.775 247.077C213.332 247.757 212.668 248.098 211.783 248.098ZM211.67 243.361C211.306 243.361 211 243.495 210.752 243.762C210.505 244.025 210.352 244.396 210.293 244.875H212.94V244.807C212.914 244.348 212.79 243.993 212.569 243.742C212.347 243.488 212.048 243.361 211.67 243.361ZM216.068 245.554L215.501 246.145V248H214.598V240.5H215.501V245.036L215.985 244.455L217.63 242.717H218.729L216.673 244.924L218.968 248H217.908L216.068 245.554ZM223.834 245.417C223.834 246.224 223.648 246.874 223.277 247.365C222.906 247.854 222.408 248.098 221.783 248.098C221.116 248.098 220.6 247.862 220.235 247.39L220.191 248H219.361V240.5H220.265V243.298C220.629 242.845 221.132 242.619 221.773 242.619C222.415 242.619 222.918 242.862 223.282 243.347C223.65 243.832 223.834 244.496 223.834 245.339V245.417ZM222.931 245.314C222.931 244.699 222.812 244.224 222.574 243.889C222.337 243.553 221.995 243.386 221.549 243.386C220.953 243.386 220.525 243.662 220.265 244.216V246.501C220.541 247.054 220.973 247.331 221.559 247.331C221.992 247.331 222.328 247.163 222.569 246.828C222.81 246.493 222.931 245.988 222.931 245.314ZM227.938 248C227.886 247.896 227.844 247.71 227.811 247.443C227.391 247.88 226.89 248.098 226.307 248.098C225.787 248.098 225.359 247.951 225.023 247.658C224.691 247.362 224.525 246.988 224.525 246.535C224.525 245.985 224.734 245.559 225.15 245.256C225.57 244.95 226.159 244.797 226.918 244.797H227.797V244.382C227.797 244.066 227.702 243.815 227.513 243.63C227.325 243.441 227.046 243.347 226.679 243.347C226.356 243.347 226.086 243.428 225.868 243.591C225.65 243.754 225.541 243.951 225.541 244.182H224.633C224.633 243.918 224.725 243.664 224.911 243.42C225.1 243.173 225.354 242.977 225.673 242.834C225.995 242.691 226.348 242.619 226.732 242.619C227.341 242.619 227.818 242.772 228.163 243.078C228.508 243.381 228.687 243.799 228.7 244.333V246.765C228.7 247.25 228.762 247.635 228.886 247.922V248H227.938ZM226.439 247.312C226.722 247.312 226.991 247.238 227.245 247.092C227.499 246.945 227.683 246.755 227.797 246.521V245.437H227.089C225.982 245.437 225.429 245.76 225.429 246.408C225.429 246.691 225.523 246.913 225.712 247.072C225.901 247.232 226.143 247.312 226.439 247.312ZM230.671 242.717L230.7 243.381C231.103 242.873 231.631 242.619 232.282 242.619C233.398 242.619 233.962 243.249 233.971 244.509V248H233.068V244.504C233.065 244.123 232.977 243.841 232.804 243.659C232.635 243.477 232.37 243.386 232.008 243.386C231.715 243.386 231.458 243.464 231.237 243.62C231.016 243.776 230.843 243.981 230.719 244.235V248H229.816V242.717H230.671ZM234.819 245.314C234.819 244.491 235.009 243.837 235.39 243.352C235.771 242.863 236.275 242.619 236.904 242.619C237.548 242.619 238.051 242.847 238.412 243.303L238.456 242.717H239.282V247.873C239.282 248.557 239.078 249.095 238.671 249.489C238.268 249.883 237.724 250.08 237.04 250.08C236.66 250.08 236.287 249.999 235.922 249.836C235.558 249.673 235.279 249.45 235.087 249.167L235.556 248.625C235.943 249.104 236.417 249.343 236.977 249.343C237.416 249.343 237.758 249.219 238.002 248.972C238.25 248.724 238.373 248.376 238.373 247.927V247.473C238.012 247.889 237.519 248.098 236.894 248.098C236.275 248.098 235.774 247.849 235.39 247.351C235.009 246.853 234.819 246.174 234.819 245.314ZM235.727 245.417C235.727 246.013 235.849 246.481 236.093 246.823C236.337 247.162 236.679 247.331 237.119 247.331C237.688 247.331 238.107 247.072 238.373 246.555V244.143C238.097 243.638 237.682 243.386 237.128 243.386C236.689 243.386 236.345 243.557 236.098 243.898C235.851 244.24 235.727 244.746 235.727 245.417ZM242.541 248.098C241.825 248.098 241.242 247.863 240.793 247.395C240.344 246.923 240.119 246.293 240.119 245.505V245.339C240.119 244.815 240.219 244.348 240.417 243.938C240.619 243.524 240.899 243.202 241.257 242.971C241.618 242.736 242.009 242.619 242.429 242.619C243.116 242.619 243.65 242.845 244.03 243.298C244.411 243.75 244.602 244.398 244.602 245.241V245.617H241.023C241.036 246.138 241.187 246.56 241.477 246.882C241.77 247.201 242.141 247.36 242.59 247.36C242.909 247.36 243.179 247.295 243.401 247.165C243.622 247.035 243.816 246.862 243.982 246.647L244.533 247.077C244.091 247.757 243.427 248.098 242.541 248.098ZM242.429 243.361C242.064 243.361 241.758 243.495 241.511 243.762C241.264 244.025 241.111 244.396 241.052 244.875H243.698V244.807C243.672 244.348 243.549 243.993 243.327 243.742C243.106 243.488 242.807 243.361 242.429 243.361ZM246.577 241.438V242.717H247.563V243.415H246.577V246.691C246.577 246.903 246.621 247.062 246.709 247.17C246.797 247.274 246.947 247.326 247.158 247.326C247.262 247.326 247.406 247.307 247.588 247.268V248C247.35 248.065 247.119 248.098 246.895 248.098C246.491 248.098 246.187 247.976 245.981 247.731C245.776 247.487 245.674 247.141 245.674 246.691V243.415H244.712V242.717H245.674V241.438H246.577ZM248.343 247.526C248.343 247.37 248.388 247.24 248.479 247.136C248.574 247.032 248.714 246.979 248.899 246.979C249.085 246.979 249.225 247.032 249.319 247.136C249.417 247.24 249.466 247.37 249.466 247.526C249.466 247.676 249.417 247.801 249.319 247.902C249.225 248.003 249.085 248.054 248.899 248.054C248.714 248.054 248.574 248.003 248.479 247.902C248.388 247.801 248.343 247.676 248.343 247.526ZM251.641 248H250.738V242.717H251.641V248ZM250.665 241.315C250.665 241.169 250.709 241.045 250.796 240.944C250.888 240.843 251.021 240.793 251.197 240.793C251.373 240.793 251.506 240.843 251.597 240.944C251.688 241.045 251.734 241.169 251.734 241.315C251.734 241.462 251.688 241.584 251.597 241.682C251.506 241.779 251.373 241.828 251.197 241.828C251.021 241.828 250.888 241.779 250.796 241.682C250.709 241.584 250.665 241.462 250.665 241.315ZM252.572 245.314C252.572 244.504 252.764 243.853 253.148 243.361C253.532 242.867 254.035 242.619 254.657 242.619C255.275 242.619 255.765 242.831 256.126 243.254V240.5H257.03V248H256.2L256.156 247.434C255.794 247.876 255.291 248.098 254.647 248.098C254.035 248.098 253.535 247.847 253.148 247.346C252.764 246.844 252.572 246.19 252.572 245.383V245.314ZM253.475 245.417C253.475 246.016 253.599 246.485 253.846 246.823C254.093 247.162 254.435 247.331 254.871 247.331C255.444 247.331 255.863 247.074 256.126 246.56V244.133C255.856 243.635 255.441 243.386 254.881 243.386C254.439 243.386 254.093 243.557 253.846 243.898C253.599 244.24 253.475 244.746 253.475 245.417ZM258.317 248.61H257.54L260.509 240.891H261.28L258.317 248.61ZM266.43 245.417C266.43 246.224 266.244 246.874 265.873 247.365C265.502 247.854 265.004 248.098 264.379 248.098C263.712 248.098 263.196 247.862 262.831 247.39L262.787 248H261.957V240.5H262.86V243.298C263.225 242.845 263.728 242.619 264.369 242.619C265.01 242.619 265.513 242.862 265.878 243.347C266.246 243.832 266.43 244.496 266.43 245.339V245.417ZM265.526 245.314C265.526 244.699 265.408 244.224 265.17 243.889C264.932 243.553 264.59 243.386 264.145 243.386C263.549 243.386 263.121 243.662 262.86 244.216V246.501C263.137 247.054 263.568 247.331 264.154 247.331C264.587 247.331 264.924 247.163 265.165 246.828C265.406 246.493 265.526 245.988 265.526 245.314ZM269.465 248.098C268.748 248.098 268.166 247.863 267.717 247.395C267.267 246.923 267.043 246.293 267.043 245.505V245.339C267.043 244.815 267.142 244.348 267.341 243.938C267.542 243.524 267.822 243.202 268.18 242.971C268.542 242.736 268.932 242.619 269.352 242.619C270.039 242.619 270.573 242.845 270.954 243.298C271.335 243.75 271.525 244.398 271.525 245.241V245.617H267.946C267.959 246.138 268.11 246.56 268.4 246.882C268.693 247.201 269.064 247.36 269.513 247.36C269.832 247.36 270.103 247.295 270.324 247.165C270.545 247.035 270.739 246.862 270.905 246.647L271.457 247.077C271.014 247.757 270.35 248.098 269.465 248.098ZM269.352 243.361C268.988 243.361 268.682 243.495 268.434 243.762C268.187 244.025 268.034 244.396 267.975 244.875H270.622V244.807C270.596 244.348 270.472 243.993 270.251 243.742C270.029 243.488 269.73 243.361 269.352 243.361ZM275.537 248C275.485 247.896 275.442 247.71 275.41 247.443C274.99 247.88 274.489 248.098 273.906 248.098C273.385 248.098 272.957 247.951 272.622 247.658C272.29 247.362 272.124 246.988 272.124 246.535C272.124 245.985 272.332 245.559 272.749 245.256C273.169 244.95 273.758 244.797 274.516 244.797H275.395V244.382C275.395 244.066 275.301 243.815 275.112 243.63C274.923 243.441 274.645 243.347 274.277 243.347C273.955 243.347 273.684 243.428 273.466 243.591C273.248 243.754 273.139 243.951 273.139 244.182H272.231C272.231 243.918 272.324 243.664 272.509 243.42C272.698 243.173 272.952 242.977 273.271 242.834C273.593 242.691 273.947 242.619 274.331 242.619C274.939 242.619 275.416 242.772 275.761 243.078C276.106 243.381 276.285 243.799 276.298 244.333V246.765C276.298 247.25 276.36 247.635 276.484 247.922V248H275.537ZM274.038 247.312C274.321 247.312 274.589 247.238 274.843 247.092C275.097 246.945 275.281 246.755 275.395 246.521V245.437H274.687C273.58 245.437 273.027 245.76 273.027 246.408C273.027 246.691 273.121 246.913 273.31 247.072C273.499 247.232 273.741 247.312 274.038 247.312ZM280.676 247.478C280.325 247.891 279.809 248.098 279.128 248.098C278.565 248.098 278.135 247.935 277.839 247.609C277.546 247.281 277.398 246.796 277.395 246.154V242.717H278.298V246.13C278.298 246.931 278.624 247.331 279.275 247.331C279.965 247.331 280.424 247.074 280.652 246.56V242.717H281.555V248H280.696L280.676 247.478ZM283.858 241.438V242.717H284.844V243.415H283.858V246.691C283.858 246.903 283.902 247.062 283.989 247.17C284.077 247.274 284.227 247.326 284.439 247.326C284.543 247.326 284.686 247.307 284.868 247.268V248C284.631 248.065 284.4 248.098 284.175 248.098C283.771 248.098 283.467 247.976 283.262 247.731C283.057 247.487 282.954 247.141 282.954 246.691V243.415H281.992V242.717H282.954V241.438H283.858ZM287.332 246.677L288.562 242.717H289.529L287.405 248.815C287.076 249.694 286.554 250.134 285.838 250.134L285.667 250.119L285.33 250.056V249.323L285.574 249.343C285.88 249.343 286.118 249.281 286.287 249.157C286.46 249.034 286.601 248.807 286.712 248.479L286.912 247.941L285.027 242.717H286.014L287.332 246.677ZM294.503 245.417C294.503 246.221 294.319 246.869 293.951 247.36C293.583 247.852 293.085 248.098 292.457 248.098C291.816 248.098 291.311 247.894 290.943 247.487V250.031H290.04V242.717H290.865L290.909 243.303C291.277 242.847 291.788 242.619 292.442 242.619C293.077 242.619 293.578 242.858 293.946 243.337C294.317 243.815 294.503 244.481 294.503 245.334V245.417ZM293.599 245.314C293.599 244.719 293.472 244.248 293.219 243.903C292.965 243.558 292.616 243.386 292.174 243.386C291.627 243.386 291.217 243.628 290.943 244.113V246.638C291.213 247.119 291.627 247.36 292.183 247.36C292.616 247.36 292.96 247.189 293.214 246.848C293.471 246.503 293.599 245.992 293.599 245.314ZM297.909 243.527C297.772 243.505 297.624 243.493 297.464 243.493C296.872 243.493 296.47 243.745 296.258 244.25V248H295.355V242.717H296.234L296.249 243.327C296.545 242.855 296.965 242.619 297.508 242.619C297.684 242.619 297.818 242.642 297.909 242.688V243.527ZM300.538 248.098C299.822 248.098 299.24 247.863 298.79 247.395C298.341 246.923 298.117 246.293 298.117 245.505V245.339C298.117 244.815 298.216 244.348 298.414 243.938C298.616 243.524 298.896 243.202 299.254 242.971C299.616 242.736 300.006 242.619 300.426 242.619C301.113 242.619 301.647 242.845 302.028 243.298C302.409 243.75 302.599 244.398 302.599 245.241V245.617H299.02C299.033 246.138 299.184 246.56 299.474 246.882C299.767 247.201 300.138 247.36 300.587 247.36C300.906 247.36 301.177 247.295 301.398 247.165C301.619 247.035 301.813 246.862 301.979 246.647L302.531 247.077C302.088 247.757 301.424 248.098 300.538 248.098ZM300.426 243.361C300.062 243.361 299.756 243.495 299.508 243.762C299.261 244.025 299.108 244.396 299.049 244.875H301.696V244.807C301.67 244.348 301.546 243.993 301.325 243.742C301.103 243.488 300.804 243.361 300.426 243.361ZM304.203 242.717L304.233 243.381C304.636 242.873 305.164 242.619 305.815 242.619C306.931 242.619 307.494 243.249 307.504 244.509V248H306.601V244.504C306.598 244.123 306.51 243.841 306.337 243.659C306.168 243.477 305.903 243.386 305.541 243.386C305.248 243.386 304.991 243.464 304.77 243.62C304.548 243.776 304.376 243.981 304.252 244.235V248H303.349V242.717H304.203ZM310.759 248.098C310.043 248.098 309.46 247.863 309.011 247.395C308.562 246.923 308.337 246.293 308.337 245.505V245.339C308.337 244.815 308.436 244.348 308.635 243.938C308.837 243.524 309.117 243.202 309.475 242.971C309.836 242.736 310.227 242.619 310.646 242.619C311.333 242.619 311.867 242.845 312.248 243.298C312.629 243.75 312.819 244.398 312.819 245.241V245.617H309.24C309.253 246.138 309.405 246.56 309.694 246.882C309.987 247.201 310.358 247.36 310.808 247.36C311.127 247.36 311.397 247.295 311.618 247.165C311.84 247.035 312.033 246.862 312.199 246.647L312.751 247.077C312.308 247.757 311.644 248.098 310.759 248.098ZM310.646 243.361C310.282 243.361 309.976 243.495 309.729 243.762C309.481 244.025 309.328 244.396 309.27 244.875H311.916V244.807C311.89 244.348 311.766 243.993 311.545 243.742C311.324 243.488 311.024 243.361 310.646 243.361ZM316.831 247.478C316.479 247.891 315.963 248.098 315.283 248.098C314.72 248.098 314.29 247.935 313.994 247.609C313.701 247.281 313.553 246.796 313.55 246.154V242.717H314.453V246.13C314.453 246.931 314.778 247.331 315.429 247.331C316.12 247.331 316.579 247.074 316.806 246.56V242.717H317.71V248H316.85L316.831 247.478ZM321.34 243.527C321.204 243.505 321.056 243.493 320.896 243.493C320.304 243.493 319.902 243.745 319.69 244.25V248H318.787V242.717H319.666L319.68 243.327C319.976 242.855 320.396 242.619 320.94 242.619C321.116 242.619 321.249 242.642 321.34 242.688V243.527Z" fill="white"/>
<defs>
<filter id="filter0_d_1505_1504" x="0" y="0" width="450" height="370" filterUnits="userSpaceOnUse" color-interpolation-filters="sRGB">
<feFlood flood-opacity="0" result="BackgroundImageFix"/>
<feColorMatrix in="SourceAlpha" type="matrix" values="0 0 0 0 0 0 0 0 0 0 0 0 0 0 0 0 0 0 127 0" result="hardAlpha"/>
<feOffset dx="-40" dy="40"/>
<feGaussianBlur stdDeviation="25"/>
<feColorMatrix type="matrix" values="0 0 0 0 0.333333 0 0 0 0 0.333333 0 0 0 0 0.333333 0 0 0 0.14 0"/>
<feBlend mode="normal" in2="BackgroundImageFix" result="effect1_dropShadow_1505_1504"/>
<feBlend mode="normal" in="SourceGraphic" in2="effect1_dropShadow_1505_1504" result="shape"/>
</filter>
<linearGradient id="paint0_linear_1505_1504" x1="207" y1="109" x2="372.5" y2="222" gradientUnits="userSpaceOnUse">
<stop stop-color="#F9A8A5"/>
<stop offset="1" stop-color="#E28A86"/>
</linearGradient>
</defs>
</svg>
