<svg width="24" height="24" viewBox="0 0 24 24" fill="none" xmlns="http://www.w3.org/2000/svg">
<path fill-rule="evenodd" clip-rule="evenodd" d="M21 7.5C21 7.08579 20.6642 6.75 20.25 6.75H6.09375C5.67954 6.75 5.34375 7.08579 5.34375 7.5C5.34375 7.91421 5.67954 8.25 6.09375 8.25H20.25C20.6642 8.25 21 7.91421 21 7.5ZM21 12C21 11.5858 20.6642 11.25 20.25 11.25H3.75C3.33579 11.25 3 11.5858 3 12C3 12.4142 3.33579 12.75 3.75 12.75H20.25C20.6642 12.75 21 12.4142 21 12ZM20.25 15.75C20.6642 15.75 21 16.0858 21 16.5C21 16.9142 20.6642 17.25 20.25 17.25H9.1875C8.77329 17.25 8.4375 16.9142 8.4375 16.5C8.4375 16.0858 8.77329 15.75 9.1875 15.75H20.25Z" fill="#888888"/>
</svg>
